<svg width="351" height="349" viewBox="0 0 351 349" fill="none" xmlns="http://www.w3.org/2000/svg">
<rect width="351" height="349" fill="#022229"/>
<line x1="80.658" y1="2.18557e-08" x2="80.6579" y2="339" stroke="url(#paint0_linear_63_7)"/>
<line x1="128.329" y1="1.99254e-08" x2="128.329" y2="339" stroke="url(#paint1_linear_63_7)"/>
<line x1="176" y1="1.99254e-08" x2="176" y2="339" stroke="url(#paint2_linear_63_7)"/>
<line x1="223.671" y1="1.99254e-08" x2="223.671" y2="339" stroke="url(#paint3_linear_63_7)"/>
<line x1="271.342" y1="1.99254e-08" x2="271.342" y2="339" stroke="url(#paint4_linear_63_7)"/>
<line x1="351" y1="77.9177" x2="-4.4485e-08" y2="77.9177" stroke="url(#paint5_linear_63_7)"/>
<line x1="351" y1="123.959" x2="-4.52587e-08" y2="123.959" stroke="url(#paint6_linear_63_7)"/>
<line x1="351" y1="170" x2="-4.52587e-08" y2="170" stroke="url(#paint7_linear_63_7)"/>
<line x1="351" y1="216.041" x2="-4.52587e-08" y2="216.041" stroke="url(#paint8_linear_63_7)"/>
<line x1="351" y1="262.083" x2="-4.52587e-08" y2="262.082" stroke="url(#paint9_linear_63_7)"/>
<g filter="url(#filter0_d_63_7)">
<path d="M251.874 155.098C255.084 133.64 238.747 122.104 216.407 114.409L223.653 85.3416L205.96 80.9321L198.905 109.234C194.253 108.075 189.476 106.981 184.729 105.897L191.834 77.4095L174.151 73L166.899 102.057C163.049 101.181 159.27 100.314 155.601 99.4016L155.621 99.3109L131.22 93.2182L126.513 112.116C126.513 112.116 139.641 115.125 139.364 115.311C146.53 117.1 147.825 121.842 147.608 125.602L139.354 158.716C139.848 158.842 140.488 159.023 141.193 159.305C140.603 159.159 139.973 158.998 139.323 158.842L127.753 205.23C126.876 207.407 124.654 210.672 119.644 209.433C119.821 209.69 106.784 206.223 106.784 206.223L98 226.476L121.025 232.216C125.309 233.289 129.507 234.413 133.639 235.472L126.317 264.872L143.99 269.281L151.242 240.194C156.069 241.504 160.756 242.713 165.342 243.852L158.115 272.804L175.809 277.213L183.131 247.869C213.302 253.578 235.99 251.275 245.54 223.987C253.235 202.015 245.157 189.341 229.282 181.076C240.843 178.41 249.551 170.805 251.874 155.098ZM211.448 211.786C205.98 233.758 168.986 221.88 156.992 218.902L166.708 179.952C178.702 182.945 217.163 188.872 211.448 211.786ZM216.921 154.78C211.932 174.766 181.141 164.612 171.153 162.123L179.961 126.796C189.95 129.286 222.116 133.932 216.921 154.78Z" fill="#CBDDE1"/>
</g>
<defs>
<filter id="filter0_d_63_7" x="94" y="73" width="162.277" height="212.213" filterUnits="userSpaceOnUse" color-interpolation-filters="sRGB">
<feFlood flood-opacity="0" result="BackgroundImageFix"/>
<feColorMatrix in="SourceAlpha" type="matrix" values="0 0 0 0 0 0 0 0 0 0 0 0 0 0 0 0 0 0 127 0" result="hardAlpha"/>
<feOffset dy="4"/>
<feGaussianBlur stdDeviation="2"/>
<feColorMatrix type="matrix" values="0 0 0 0 0 0 0 0 0 0 0 0 0 0 0 0 0 0 0.25 0"/>
<feBlend mode="normal" in2="BackgroundImageFix" result="effect1_dropShadow_63_7"/>
<feBlend mode="normal" in="SourceGraphic" in2="effect1_dropShadow_63_7" result="shape"/>
</filter>
<linearGradient id="paint0_linear_63_7" x1="79.658" y1="-2.18557e-08" x2="79.6579" y2="339" gradientUnits="userSpaceOnUse">
<stop stop-color="white" stop-opacity="0"/>
<stop offset="0.515" stop-color="white" stop-opacity="0.1"/>
<stop offset="1" stop-color="white" stop-opacity="0"/>
</linearGradient>
<linearGradient id="paint1_linear_63_7" x1="127.329" y1="-1.99254e-08" x2="127.329" y2="339" gradientUnits="userSpaceOnUse">
<stop stop-color="white" stop-opacity="0"/>
<stop offset="0.515" stop-color="white" stop-opacity="0.1"/>
<stop offset="1" stop-color="white" stop-opacity="0"/>
</linearGradient>
<linearGradient id="paint2_linear_63_7" x1="175" y1="-1.99254e-08" x2="175" y2="339" gradientUnits="userSpaceOnUse">
<stop stop-color="white" stop-opacity="0"/>
<stop offset="0.515" stop-color="white" stop-opacity="0.1"/>
<stop offset="1" stop-color="white" stop-opacity="0"/>
</linearGradient>
<linearGradient id="paint3_linear_63_7" x1="222.671" y1="-1.99254e-08" x2="222.671" y2="339" gradientUnits="userSpaceOnUse">
<stop stop-color="white" stop-opacity="0"/>
<stop offset="0.515" stop-color="white" stop-opacity="0.1"/>
<stop offset="1" stop-color="white" stop-opacity="0"/>
</linearGradient>
<linearGradient id="paint4_linear_63_7" x1="270.342" y1="-1.99254e-08" x2="270.342" y2="339" gradientUnits="userSpaceOnUse">
<stop stop-color="white" stop-opacity="0"/>
<stop offset="0.515" stop-color="white" stop-opacity="0.1"/>
<stop offset="1" stop-color="white" stop-opacity="0"/>
</linearGradient>
<linearGradient id="paint5_linear_63_7" x1="351" y1="76.9177" x2="4.44851e-08" y2="76.9177" gradientUnits="userSpaceOnUse">
<stop stop-color="white" stop-opacity="0"/>
<stop offset="0.515" stop-color="white" stop-opacity="0.1"/>
<stop offset="1" stop-color="white" stop-opacity="0"/>
</linearGradient>
<linearGradient id="paint6_linear_63_7" x1="351" y1="122.959" x2="4.52589e-08" y2="122.959" gradientUnits="userSpaceOnUse">
<stop stop-color="white" stop-opacity="0"/>
<stop offset="0.515" stop-color="white" stop-opacity="0.1"/>
<stop offset="1" stop-color="white" stop-opacity="0"/>
</linearGradient>
<linearGradient id="paint7_linear_63_7" x1="351" y1="169" x2="4.52589e-08" y2="169" gradientUnits="userSpaceOnUse">
<stop stop-color="white" stop-opacity="0"/>
<stop offset="0.515" stop-color="white" stop-opacity="0.1"/>
<stop offset="1" stop-color="white" stop-opacity="0"/>
</linearGradient>
<linearGradient id="paint8_linear_63_7" x1="351" y1="215.041" x2="4.52589e-08" y2="215.041" gradientUnits="userSpaceOnUse">
<stop stop-color="white" stop-opacity="0"/>
<stop offset="0.515" stop-color="white" stop-opacity="0.1"/>
<stop offset="1" stop-color="white" stop-opacity="0"/>
</linearGradient>
<linearGradient id="paint9_linear_63_7" x1="351" y1="261.083" x2="4.52589e-08" y2="261.082" gradientUnits="userSpaceOnUse">
<stop stop-color="white" stop-opacity="0"/>
<stop offset="0.515" stop-color="white" stop-opacity="0.1"/>
<stop offset="1" stop-color="white" stop-opacity="0"/>
</linearGradient>
</defs>
</svg>
