<svg width="351" height="349" viewBox="0 0 351 349" fill="none" xmlns="http://www.w3.org/2000/svg">
<rect width="351" height="349" fill="#022229"/>
<line x1="80.658" y1="2.18557e-08" x2="80.6579" y2="339" stroke="url(#paint0_linear_65_25)"/>
<line x1="128.329" y1="1.99254e-08" x2="128.329" y2="339" stroke="url(#paint1_linear_65_25)"/>
<line x1="176" y1="1.99254e-08" x2="176" y2="339" stroke="url(#paint2_linear_65_25)"/>
<line x1="223.671" y1="1.99254e-08" x2="223.671" y2="339" stroke="url(#paint3_linear_65_25)"/>
<line x1="271.342" y1="1.99254e-08" x2="271.342" y2="339" stroke="url(#paint4_linear_65_25)"/>
<line x1="351" y1="77.9177" x2="-4.4485e-08" y2="77.9177" stroke="url(#paint5_linear_65_25)"/>
<line x1="351" y1="123.959" x2="-4.52587e-08" y2="123.959" stroke="url(#paint6_linear_65_25)"/>
<line x1="351" y1="170" x2="-4.52587e-08" y2="170" stroke="url(#paint7_linear_65_25)"/>
<line x1="351" y1="216.041" x2="-4.52587e-08" y2="216.041" stroke="url(#paint8_linear_65_25)"/>
<line x1="351" y1="262.083" x2="-4.52587e-08" y2="262.082" stroke="url(#paint9_linear_65_25)"/>
<path d="M135.331 57.2186C138.473 56.2518 142.222 58.6115 142.5 61.938C142.68 77.5381 142.549 93.1381 142.598 108.738V215.563C142.549 217.644 143.613 219.774 145.414 220.79C154.204 225.968 163.075 231.065 171.865 236.259C173.617 237.226 175.892 237.554 177.644 236.439C186.663 231.163 195.731 225.935 204.75 220.561C206.649 219.496 207.336 217.234 207.336 215.137V184.952C207.385 182.773 206.272 180.594 204.373 179.529C195.862 174.58 187.35 169.582 178.855 164.666C176.956 163.552 174.975 161.847 174.926 159.438C174.877 144.674 174.926 129.861 174.926 115.08C174.926 111.196 179.591 108.591 183.062 110.082C206.469 123.929 230.007 137.53 253.446 151.327C255.198 152.441 255.984 154.572 255.984 156.554V243.862C256.033 245.944 255.018 248.074 253.168 249.139C228.664 263.543 204.095 277.799 179.591 292.187C178.249 292.973 176.907 293.989 175.237 293.94C173.715 294.071 172.324 293.432 171.129 292.596C146.396 278.111 121.647 263.658 96.9136 249.172C95.1622 248.156 94 246.157 94 244.174V84.6335C94.0491 82.7326 94.933 80.7007 96.5862 79.6847C109.108 72.3599 121.597 65.0023 134.119 57.743C134.529 57.5627 134.905 57.3333 135.314 57.235L135.331 57.2186Z" fill="#CBDDE1"/>
<defs>
<linearGradient id="paint0_linear_65_25" x1="79.658" y1="-2.18557e-08" x2="79.6579" y2="339" gradientUnits="userSpaceOnUse">
<stop stop-color="white" stop-opacity="0"/>
<stop offset="0.515" stop-color="white" stop-opacity="0.1"/>
<stop offset="1" stop-color="white" stop-opacity="0"/>
</linearGradient>
<linearGradient id="paint1_linear_65_25" x1="127.329" y1="-1.99254e-08" x2="127.329" y2="339" gradientUnits="userSpaceOnUse">
<stop stop-color="white" stop-opacity="0"/>
<stop offset="0.515" stop-color="white" stop-opacity="0.1"/>
<stop offset="1" stop-color="white" stop-opacity="0"/>
</linearGradient>
<linearGradient id="paint2_linear_65_25" x1="175" y1="-1.99254e-08" x2="175" y2="339" gradientUnits="userSpaceOnUse">
<stop stop-color="white" stop-opacity="0"/>
<stop offset="0.515" stop-color="white" stop-opacity="0.1"/>
<stop offset="1" stop-color="white" stop-opacity="0"/>
</linearGradient>
<linearGradient id="paint3_linear_65_25" x1="222.671" y1="-1.99254e-08" x2="222.671" y2="339" gradientUnits="userSpaceOnUse">
<stop stop-color="white" stop-opacity="0"/>
<stop offset="0.515" stop-color="white" stop-opacity="0.1"/>
<stop offset="1" stop-color="white" stop-opacity="0"/>
</linearGradient>
<linearGradient id="paint4_linear_65_25" x1="270.342" y1="-1.99254e-08" x2="270.342" y2="339" gradientUnits="userSpaceOnUse">
<stop stop-color="white" stop-opacity="0"/>
<stop offset="0.515" stop-color="white" stop-opacity="0.1"/>
<stop offset="1" stop-color="white" stop-opacity="0"/>
</linearGradient>
<linearGradient id="paint5_linear_65_25" x1="351" y1="76.9177" x2="4.44851e-08" y2="76.9177" gradientUnits="userSpaceOnUse">
<stop stop-color="white" stop-opacity="0"/>
<stop offset="0.515" stop-color="white" stop-opacity="0.1"/>
<stop offset="1" stop-color="white" stop-opacity="0"/>
</linearGradient>
<linearGradient id="paint6_linear_65_25" x1="351" y1="122.959" x2="4.52589e-08" y2="122.959" gradientUnits="userSpaceOnUse">
<stop stop-color="white" stop-opacity="0"/>
<stop offset="0.515" stop-color="white" stop-opacity="0.1"/>
<stop offset="1" stop-color="white" stop-opacity="0"/>
</linearGradient>
<linearGradient id="paint7_linear_65_25" x1="351" y1="169" x2="4.52589e-08" y2="169" gradientUnits="userSpaceOnUse">
<stop stop-color="white" stop-opacity="0"/>
<stop offset="0.515" stop-color="white" stop-opacity="0.1"/>
<stop offset="1" stop-color="white" stop-opacity="0"/>
</linearGradient>
<linearGradient id="paint8_linear_65_25" x1="351" y1="215.041" x2="4.52589e-08" y2="215.041" gradientUnits="userSpaceOnUse">
<stop stop-color="white" stop-opacity="0"/>
<stop offset="0.515" stop-color="white" stop-opacity="0.1"/>
<stop offset="1" stop-color="white" stop-opacity="0"/>
</linearGradient>
<linearGradient id="paint9_linear_65_25" x1="351" y1="261.083" x2="4.52589e-08" y2="261.082" gradientUnits="userSpaceOnUse">
<stop stop-color="white" stop-opacity="0"/>
<stop offset="0.515" stop-color="white" stop-opacity="0.1"/>
<stop offset="1" stop-color="white" stop-opacity="0"/>
</linearGradient>
</defs>
</svg>
