<svg width="351" height="349" viewBox="0 0 351 349" fill="none" xmlns="http://www.w3.org/2000/svg">
<rect width="351" height="349" fill="#022229"/>
<line x1="80.658" y1="2.18557e-08" x2="80.6579" y2="339" stroke="url(#paint0_linear_65_25)"/>
<line x1="128.329" y1="1.99254e-08" x2="128.329" y2="339" stroke="url(#paint1_linear_65_25)"/>
<line x1="176" y1="1.99254e-08" x2="176" y2="339" stroke="url(#paint2_linear_65_25)"/>
<line x1="223.671" y1="1.99254e-08" x2="223.671" y2="339" stroke="url(#paint3_linear_65_25)"/>
<line x1="271.342" y1="1.99254e-08" x2="271.342" y2="339" stroke="url(#paint4_linear_65_25)"/>
<line x1="351" y1="77.9177" x2="-4.4485e-08" y2="77.9177" stroke="url(#paint5_linear_65_25)"/>
<line x1="351" y1="123.959" x2="-4.52587e-08" y2="123.959" stroke="url(#paint6_linear_65_25)"/>
<line x1="351" y1="170" x2="-4.52587e-08" y2="170" stroke="url(#paint7_linear_65_25)"/>
<line x1="351" y1="216.041" x2="-4.52587e-08" y2="216.041" stroke="url(#paint8_linear_65_25)"/>
<line x1="351" y1="262.083" x2="-4.52587e-08" y2="262.082" stroke="url(#paint9_linear_65_25)"/>
<g filter="url(#filter0_d_65_25)">
<path d="M79.2872 210.757C77.4717 210.757 76 209.285 76 207.469V141.287C76 139.472 77.4717 138 79.2872 138V138C81.1027 138 82.5744 139.472 82.5744 141.287V167.359C82.5744 169.568 84.3653 171.359 86.5744 171.359H119.427C121.636 171.359 123.427 169.568 123.427 167.359V141.287C123.427 139.472 124.899 138 126.714 138V138C128.53 138 130.002 139.472 130.002 141.287V207.469C130.002 209.285 128.53 210.757 126.714 210.757V210.757C124.899 210.757 123.427 209.285 123.427 207.469V181.327C123.427 179.118 121.636 177.327 119.427 177.327H86.5744C84.3653 177.327 82.5744 179.118 82.5744 181.327V207.469C82.5744 209.285 81.1027 210.757 79.2872 210.757V210.757Z" fill="#CBDDE1"/>
<path d="M197.082 141.287C197.082 139.472 198.553 138 200.369 138V138C202.184 138 203.656 139.472 203.656 141.287V186.173C203.656 191.123 202.508 195.552 200.211 199.459C197.914 203.344 194.715 206.411 190.613 208.661C186.535 210.887 181.788 212 176.374 212C170.983 212 166.237 210.875 162.135 208.625C158.034 206.375 154.834 203.308 152.537 199.424C150.241 195.54 149.092 191.123 149.092 186.173V141.287C149.092 139.472 150.564 138 152.379 138V138C154.195 138 155.666 139.472 155.666 141.287V185.711C155.666 189.571 156.522 193.017 158.233 196.049C159.944 199.057 162.346 201.425 165.44 203.154C168.557 204.883 172.202 205.747 176.374 205.747C180.546 205.747 184.191 204.883 187.308 203.154C190.425 201.425 192.828 199.057 194.515 196.049C196.226 193.017 197.082 189.571 197.082 185.711V141.287Z" fill="#CBDDE1"/>
<path d="M226.764 210.757C224.555 210.757 222.764 208.966 222.764 206.757V142C222.764 139.791 224.555 138 226.764 138H247.058C251.746 138 255.648 138.829 258.765 140.487C261.906 142.145 264.262 144.406 265.832 147.272C267.402 150.138 268.187 153.394 268.187 157.042C268.187 160.073 267.683 162.667 266.676 164.822C265.668 166.977 264.297 168.718 262.562 170.044C260.895 171.319 259.043 172.255 257.007 172.852C256.862 172.894 256.761 173.026 256.761 173.177V173.177C256.761 173.354 256.898 173.499 257.073 173.516C259.283 173.732 261.43 174.552 263.511 175.977C265.691 177.445 267.484 179.506 268.891 182.158C270.297 184.811 271 187.985 271 191.679C271 195.35 270.191 198.631 268.574 201.52C266.957 204.386 264.472 206.647 261.121 208.305C257.793 209.94 253.55 210.757 248.394 210.757H226.764ZM229.339 200.788C229.339 202.997 231.129 204.788 233.339 204.788H248.394C253.949 204.788 258.05 203.545 260.699 201.058C263.371 198.571 264.707 195.445 264.707 191.679C264.707 188.908 264.039 186.398 262.703 184.148C261.39 181.874 259.527 180.074 257.113 178.748C254.722 177.422 251.91 176.759 248.675 176.759H233.339C231.129 176.759 229.339 178.549 229.339 180.759V200.788ZM229.339 166.861C229.339 169.07 231.129 170.861 233.339 170.861H247.656C250.492 170.861 252.976 170.269 255.109 169.085C257.242 167.901 258.906 166.267 260.101 164.182C261.297 162.098 261.894 159.718 261.894 157.042C261.894 153.181 260.652 150.043 258.168 147.627C255.683 145.188 251.98 143.968 247.058 143.968H233.339C231.129 143.968 229.339 145.759 229.339 147.968V166.861Z" fill="#CBDDE1"/>
</g>
<defs>
<filter id="filter0_d_65_25" x="72" y="138" width="203" height="82" filterUnits="userSpaceOnUse" color-interpolation-filters="sRGB">
<feFlood flood-opacity="0" result="BackgroundImageFix"/>
<feColorMatrix in="SourceAlpha" type="matrix" values="0 0 0 0 0 0 0 0 0 0 0 0 0 0 0 0 0 0 127 0" result="hardAlpha"/>
<feOffset dy="4"/>
<feGaussianBlur stdDeviation="2"/>
<feComposite in2="hardAlpha" operator="out"/>
<feColorMatrix type="matrix" values="0 0 0 0 0 0 0 0 0 0 0 0 0 0 0 0 0 0 0.25 0"/>
<feBlend mode="normal" in2="BackgroundImageFix" result="effect1_dropShadow_65_25"/>
<feBlend mode="normal" in="SourceGraphic" in2="effect1_dropShadow_65_25" result="shape"/>
</filter>
<linearGradient id="paint0_linear_65_25" x1="79.658" y1="-2.18557e-08" x2="79.6579" y2="339" gradientUnits="userSpaceOnUse">
<stop stop-color="white" stop-opacity="0"/>
<stop offset="0.515" stop-color="white" stop-opacity="0.1"/>
<stop offset="1" stop-color="white" stop-opacity="0"/>
</linearGradient>
<linearGradient id="paint1_linear_65_25" x1="127.329" y1="-1.99254e-08" x2="127.329" y2="339" gradientUnits="userSpaceOnUse">
<stop stop-color="white" stop-opacity="0"/>
<stop offset="0.515" stop-color="white" stop-opacity="0.1"/>
<stop offset="1" stop-color="white" stop-opacity="0"/>
</linearGradient>
<linearGradient id="paint2_linear_65_25" x1="175" y1="-1.99254e-08" x2="175" y2="339" gradientUnits="userSpaceOnUse">
<stop stop-color="white" stop-opacity="0"/>
<stop offset="0.515" stop-color="white" stop-opacity="0.1"/>
<stop offset="1" stop-color="white" stop-opacity="0"/>
</linearGradient>
<linearGradient id="paint3_linear_65_25" x1="222.671" y1="-1.99254e-08" x2="222.671" y2="339" gradientUnits="userSpaceOnUse">
<stop stop-color="white" stop-opacity="0"/>
<stop offset="0.515" stop-color="white" stop-opacity="0.1"/>
<stop offset="1" stop-color="white" stop-opacity="0"/>
</linearGradient>
<linearGradient id="paint4_linear_65_25" x1="270.342" y1="-1.99254e-08" x2="270.342" y2="339" gradientUnits="userSpaceOnUse">
<stop stop-color="white" stop-opacity="0"/>
<stop offset="0.515" stop-color="white" stop-opacity="0.1"/>
<stop offset="1" stop-color="white" stop-opacity="0"/>
</linearGradient>
<linearGradient id="paint5_linear_65_25" x1="351" y1="76.9177" x2="4.44851e-08" y2="76.9177" gradientUnits="userSpaceOnUse">
<stop stop-color="white" stop-opacity="0"/>
<stop offset="0.515" stop-color="white" stop-opacity="0.1"/>
<stop offset="1" stop-color="white" stop-opacity="0"/>
</linearGradient>
<linearGradient id="paint6_linear_65_25" x1="351" y1="122.959" x2="4.52589e-08" y2="122.959" gradientUnits="userSpaceOnUse">
<stop stop-color="white" stop-opacity="0"/>
<stop offset="0.515" stop-color="white" stop-opacity="0.1"/>
<stop offset="1" stop-color="white" stop-opacity="0"/>
</linearGradient>
<linearGradient id="paint7_linear_65_25" x1="351" y1="169" x2="4.52589e-08" y2="169" gradientUnits="userSpaceOnUse">
<stop stop-color="white" stop-opacity="0"/>
<stop offset="0.515" stop-color="white" stop-opacity="0.1"/>
<stop offset="1" stop-color="white" stop-opacity="0"/>
</linearGradient>
<linearGradient id="paint8_linear_65_25" x1="351" y1="215.041" x2="4.52589e-08" y2="215.041" gradientUnits="userSpaceOnUse">
<stop stop-color="white" stop-opacity="0"/>
<stop offset="0.515" stop-color="white" stop-opacity="0.1"/>
<stop offset="1" stop-color="white" stop-opacity="0"/>
</linearGradient>
<linearGradient id="paint9_linear_65_25" x1="351" y1="261.083" x2="4.52589e-08" y2="261.082" gradientUnits="userSpaceOnUse">
<stop stop-color="white" stop-opacity="0"/>
<stop offset="0.515" stop-color="white" stop-opacity="0.1"/>
<stop offset="1" stop-color="white" stop-opacity="0"/>
</linearGradient>
</defs>
</svg>
