<svg width="351" height="349" viewBox="0 0 351 349" fill="none" xmlns="http://www.w3.org/2000/svg">
<rect width="351" height="349" fill="#022229"/>
<line x1="80.658" y1="2.18557e-08" x2="80.6579" y2="339" stroke="url(#paint0_linear_64_12)"/>
<line x1="128.329" y1="1.99254e-08" x2="128.329" y2="339" stroke="url(#paint1_linear_64_12)"/>
<line x1="176" y1="1.99254e-08" x2="176" y2="339" stroke="url(#paint2_linear_64_12)"/>
<line x1="223.671" y1="1.99254e-08" x2="223.671" y2="339" stroke="url(#paint3_linear_64_12)"/>
<line x1="271.342" y1="1.99254e-08" x2="271.342" y2="339" stroke="url(#paint4_linear_64_12)"/>
<line x1="351" y1="77.9177" x2="-4.4485e-08" y2="77.9177" stroke="url(#paint5_linear_64_12)"/>
<line x1="351" y1="123.959" x2="-4.52587e-08" y2="123.959" stroke="url(#paint6_linear_64_12)"/>
<line x1="351" y1="170" x2="-4.52587e-08" y2="170" stroke="url(#paint7_linear_64_12)"/>
<line x1="351" y1="216.041" x2="-4.52587e-08" y2="216.041" stroke="url(#paint8_linear_64_12)"/>
<line x1="351" y1="262.083" x2="-4.52587e-08" y2="262.082" stroke="url(#paint9_linear_64_12)"/>
<g clip-path="url(#clip0_64_12)">
<path d="M231.456 99.3662C231.748 99.6044 232.038 99.8457 232.324 100.091C234.027 101.419 236.405 101.943 238.455 102.525C238.634 102.576 238.813 102.627 238.998 102.68C239.34 102.775 239.683 102.868 240.026 102.958C241.053 103.24 241.745 103.613 242.529 104.336C241.751 104.492 240.974 104.648 240.173 104.809C240.749 105.967 241.148 105.985 242.293 106.465C242.371 106.7 242.449 106.934 242.529 107.175C241.656 107.468 240.844 107.449 239.935 107.454C239.548 107.459 239.161 107.465 238.773 107.471C238.168 107.479 237.563 107.486 236.958 107.489C232.094 107.489 232.094 107.489 227.686 109.305C227.203 110.275 227.392 111.246 227.701 112.248C228.641 114.189 230.302 115.411 231.984 116.675C233.009 117.449 234 118.263 234.99 119.081C235.159 119.22 235.328 119.359 235.502 119.502C236.702 120.495 237.811 121.54 238.833 122.72C238.953 122.857 239.074 122.995 239.198 123.137C239.466 123.504 239.466 123.504 239.466 123.977C239.622 123.977 239.777 123.977 239.937 123.977C240.644 125.338 240.644 125.338 240.644 125.87C240.8 125.87 240.955 125.87 241.115 125.87C243.385 131.295 243.824 137.02 241.73 142.598C241.394 143.35 241.032 144.075 240.644 144.801C240.476 145.131 240.476 145.131 240.305 145.468C238.934 148.099 237.267 150.686 235.225 152.847C235.07 152.847 234.914 152.847 234.754 152.847C234.691 152.998 234.628 153.15 234.563 153.306C234.283 153.794 234.283 153.794 233.576 154.03C233.576 154.187 233.576 154.343 233.576 154.504C233.257 154.81 233.257 154.81 232.808 155.156C232.56 155.348 232.56 155.348 232.308 155.543C232.129 155.678 231.949 155.814 231.765 155.953C231.582 156.092 231.399 156.231 231.21 156.375C229.696 157.513 228.136 158.507 226.508 159.473C225.823 159.893 225.142 160.319 224.461 160.745C224.215 160.898 224.215 160.898 223.964 161.053C223.346 161.439 222.783 161.794 222.267 162.313C222.187 162.99 222.187 162.99 222.186 163.787C222.18 164.088 222.173 164.389 222.166 164.699C222.163 164.858 222.161 165.016 222.158 165.18C222.049 171.253 221.351 176.113 216.848 180.534C215.057 182.135 213.159 183.354 210.958 184.32C210.706 184.439 210.454 184.558 210.194 184.68C205.208 186.883 199.827 187.177 194.459 187.273C193.949 187.282 193.44 187.295 192.93 187.307C192.631 187.313 192.332 187.319 192.024 187.325C191.129 187.4 190.363 187.566 189.518 187.87C189.229 188.398 189.229 188.398 189.047 189.053C188.17 190.512 187.182 191.262 185.749 192.144C184.416 192.971 183.384 193.696 182.45 194.969C182.299 195.169 182.147 195.37 181.991 195.576C181.856 195.766 181.721 195.956 181.582 196.152C181.376 196.438 181.376 196.438 181.167 196.729C180.771 197.386 180.546 198.021 180.33 198.756C182.924 198.01 185.497 197.209 188.064 196.376C189.506 195.908 190.951 195.452 192.4 195.007C193.269 194.739 194.136 194.468 195.004 194.196C195.853 193.93 196.703 193.664 197.553 193.399C197.988 193.263 198.422 193.127 198.857 192.99C209.395 189.683 209.395 189.683 211.974 190.813C213.846 191.949 214.97 193.867 216.06 195.707C216.743 196.857 217.475 197.975 218.203 199.096C218.334 199.297 218.465 199.499 218.599 199.707C218.725 199.9 218.85 200.094 218.98 200.293C219.099 200.477 219.219 200.661 219.342 200.85C219.631 201.291 219.927 201.727 220.226 202.162C220.671 202.861 220.816 203.372 220.853 204.198C220.382 204.672 220.382 204.672 219.69 204.686C217.727 204.341 215.896 202.706 214.492 201.359C214.492 201.202 214.492 201.046 214.492 200.885C214.259 200.807 214.026 200.729 213.785 200.649C212.843 199.594 212.843 199.594 212.843 198.992C212.454 199.148 212.066 199.305 211.665 199.465C211.685 199.685 211.704 199.904 211.725 200.13C211.749 200.413 211.773 200.697 211.798 200.989C211.822 201.272 211.847 201.554 211.872 201.846C211.881 202.075 211.891 202.305 211.901 202.542C211.823 202.62 211.745 202.698 211.665 202.778C210.579 202.778 210.139 202.663 209.353 201.891C208.686 200.841 208.601 199.687 208.474 198.47C208.427 197.778 208.427 197.778 207.895 197.336C206.011 197.106 204.306 197.443 202.521 198.016C202.165 198.125 202.165 198.125 201.802 198.236C201.004 198.483 200.209 198.737 199.414 198.992C199.114 199.088 198.814 199.184 198.514 199.28C196.65 199.877 194.79 200.483 192.93 201.091C191.843 201.446 190.755 201.796 189.666 202.142C189.492 202.198 189.319 202.253 189.14 202.31C187.765 202.744 186.382 203.145 184.997 203.544C183.87 203.875 182.79 204.267 181.716 204.743C181.272 204.908 181.272 204.908 180.566 204.908C180.566 205.064 180.566 205.221 180.566 205.382C177.489 207.066 177.489 207.066 175.853 207.038C175.255 206.854 174.764 206.621 174.204 206.328C174.204 206.172 174.204 206.016 174.204 205.855C173.971 205.777 173.738 205.699 173.497 205.618C172.805 204.544 172.677 203.586 172.702 202.335C172.704 202.168 172.705 202.001 172.707 201.828C172.739 200.566 172.949 199.644 173.497 198.519C173.575 198.285 173.653 198.05 173.733 197.809C173.889 197.809 174.044 197.809 174.204 197.809C174.225 197.666 174.245 197.522 174.266 197.375C174.63 195.193 175.556 193.441 176.792 191.63C177.079 191.095 177.173 190.597 177.267 190C176.046 190.4 174.826 190.807 173.61 191.221C173.239 191.347 172.868 191.472 172.497 191.596C170.477 192.273 168.752 193.04 167.081 194.4C166.352 194.983 165.607 195.544 164.864 196.109C164.21 196.608 163.558 197.108 162.905 197.608C161.991 198.309 161.076 199.008 160.157 199.702C159.945 199.863 159.733 200.024 159.514 200.189C159.075 200.512 158.629 200.825 158.178 201.13C156.783 202.085 155.914 202.819 155.356 204.435C154.577 206.659 153.118 208.239 151.027 209.316C150.274 209.67 149.828 209.878 148.995 209.878C148.917 210.112 148.839 210.346 148.759 210.588C148.604 210.588 148.448 210.588 148.288 210.588C148.244 210.744 148.201 210.9 148.156 211.061C147.741 211.93 147.181 212.54 146.535 213.245C146.151 213.647 146.151 213.647 145.932 214.137C145.777 214.137 145.621 214.137 145.461 214.137C145.398 214.328 145.334 214.518 145.269 214.714C145.177 214.914 145.085 215.114 144.99 215.32C144.756 215.399 144.523 215.477 144.283 215.557C144.123 215.95 143.967 216.345 143.812 216.74C143.429 217.277 143.043 217.793 142.634 218.308C141.78 219.395 141.78 219.395 140.984 220.527C140.829 220.527 140.673 220.527 140.513 220.527C140.28 221.112 140.28 221.112 140.042 221.71C139.886 221.71 139.731 221.71 139.571 221.71C139.498 221.895 139.425 222.081 139.35 222.272C139.1 222.893 139.1 222.893 138.864 223.366C138.708 223.366 138.553 223.366 138.393 223.366C138.16 223.952 138.16 223.952 137.922 224.549C137.766 224.549 137.611 224.549 137.45 224.549C137.364 224.801 137.364 224.801 137.275 225.058C136.939 225.824 136.517 226.402 136.007 227.064C135.816 227.315 135.624 227.567 135.433 227.819C135.337 227.945 135.24 228.071 135.141 228.201C132.925 231.103 132.925 231.103 131.089 234.252C130.934 234.252 130.778 234.252 130.618 234.252C130.559 234.416 130.5 234.579 130.439 234.748C130.103 235.537 129.686 236.23 129.234 236.958C129.074 237.217 128.914 237.475 128.75 237.741C128.589 237.995 128.428 238.249 128.262 238.511C128.105 238.761 127.947 239.011 127.785 239.268C127.367 239.864 126.994 240.274 126.436 240.73C124.599 242.291 122.519 244.131 121.429 246.32C121.274 246.32 121.118 246.32 120.958 246.32C120.895 246.53 120.832 246.74 120.767 246.956C120.504 247.694 120.199 248.267 119.78 248.923C119.355 249.6 119.01 250.251 118.72 250.994C118.545 251.375 118.545 251.375 118.367 251.763C118.133 251.841 117.9 251.919 117.66 252C116.656 251.089 116.517 250.582 116.417 249.242C116.298 245.669 117.381 242.744 119.633 239.946C120.089 239.468 120.089 239.468 120.016 238.748C119.854 238.773 119.692 238.799 119.525 238.825C119.313 238.853 119.101 238.881 118.882 238.911C118.671 238.941 118.461 238.971 118.244 239.002C117.66 238.985 117.66 238.985 117.229 238.667C116.953 238.275 116.953 238.275 116.968 237.757C117.666 235.653 118.67 234.246 120.667 233.201C122.098 232.571 123.531 232.149 125.059 231.832C125.71 231.637 126.086 231.358 126.613 230.939C126.768 230.939 126.924 230.939 127.084 230.939C127.146 230.764 127.208 230.59 127.272 230.41C127.556 229.753 127.87 229.301 128.321 228.75C129.056 227.833 129.7 226.886 130.321 225.887C130.468 225.693 130.468 225.693 130.618 225.496C130.773 225.496 130.929 225.496 131.089 225.496C131.149 225.329 131.209 225.161 131.27 224.989C131.588 224.248 131.978 223.634 132.429 222.967C132.596 222.72 132.763 222.473 132.934 222.218C133.536 221.34 134.142 220.465 134.754 219.594C135.03 219.199 135.299 218.798 135.566 218.397C135.721 218.397 135.877 218.397 136.037 218.397C136.064 218.26 136.091 218.124 136.12 217.984C136.284 217.409 136.513 216.993 136.832 216.489C136.931 216.33 137.03 216.171 137.132 216.007C137.45 215.557 137.45 215.557 137.782 215.234C138.191 214.812 138.502 214.375 138.83 213.886C138.956 213.698 139.083 213.511 139.213 213.318C139.346 213.12 139.478 212.922 139.615 212.717C140.488 211.419 141.368 210.136 142.31 208.887C143.157 207.726 143.595 206.656 143.967 205.279C144.581 203.064 145.48 201.541 147.346 200.175C147.952 199.849 148.579 199.593 149.216 199.332C151.33 198.401 152.969 197.087 154.699 195.572C155.307 195.044 155.935 194.542 156.564 194.038C157.263 193.465 157.923 192.884 158.551 192.233C158.741 192.043 158.93 191.852 159.126 191.656C159.281 191.656 159.437 191.656 159.597 191.656C159.752 191.344 159.908 191.032 160.068 190.71C160.224 190.71 160.379 190.71 160.539 190.71C160.601 190.572 160.663 190.434 160.727 190.292C161.024 189.738 161.354 189.339 161.776 188.876C162.359 188.218 162.928 187.557 163.47 186.864C163.586 186.717 163.702 186.569 163.822 186.417C164.152 185.925 164.152 185.925 164.073 185.03C163.81 184.961 163.81 184.961 163.541 184.89C162.757 184.682 161.975 184.472 161.192 184.26C160.717 184.132 160.241 184.004 159.766 183.876C151.083 181.538 151.083 181.538 147.11 179.588C146.838 179.458 146.566 179.329 146.285 179.196C144.872 178.515 143.542 177.829 142.338 176.81C140.832 175.716 139.096 175.909 137.342 176.15C136.452 176.304 135.567 176.476 134.682 176.659C134.525 176.691 134.369 176.724 134.207 176.757C130.632 177.498 127.699 178.672 124.614 180.648C123.256 181.49 123.256 181.49 122.24 181.437C121.955 181.342 121.955 181.342 121.665 181.244C121.015 179.287 121.501 177.439 122.166 175.552C122.364 174.881 122.413 174.365 122.372 173.672C120.831 173.701 120.089 174.597 119.059 175.624C118.895 175.782 118.732 175.941 118.563 176.104C117.702 176.939 116.855 177.788 116.011 178.641C115.775 178.878 115.775 178.878 115.215 178.937C114.597 178.878 114.597 178.878 114.185 178.567C113.39 177.49 113.522 176.123 113.655 174.855C114.46 171.206 114.46 171.206 115.068 170.595C115.078 170.201 115.078 169.806 115.068 169.412C113.259 169.443 111.972 170.078 110.411 170.928C109.734 171.263 109.218 171.467 108.471 171.542C108.316 171.464 108.16 171.386 108 171.305C107.683 167.167 110.455 163.445 112.948 160.42C116.629 156.68 121.44 154.434 126.686 154.4C128.172 154.416 129.524 154.616 130.955 155.04C131.782 155.277 132.59 155.368 133.445 155.45C133.406 155.288 133.366 155.125 133.325 154.958C133.253 154.638 133.253 154.638 133.18 154.311C133.131 154.1 133.082 153.889 133.031 153.671C132.974 153.084 132.974 153.084 133.445 152.374C133.891 152.287 133.891 152.287 134.443 152.29C134.651 152.289 134.858 152.289 135.072 152.288C135.298 152.29 135.525 152.292 135.758 152.294C136.242 152.292 136.726 152.29 137.209 152.288C137.463 152.287 137.717 152.287 137.978 152.287C143.419 152.274 148.682 152.121 153.707 149.771C154.017 149.631 154.328 149.49 154.638 149.35C156.308 148.586 157.939 147.764 159.553 146.887C167.528 142.578 176.092 139.056 185.16 138.116C185.343 138.097 185.525 138.078 185.714 138.059C195.748 137.14 203.91 140.266 212.131 145.684C213.57 146.591 214.961 146.713 216.638 146.351C216.936 146.264 217.233 146.178 217.53 146.091C218.699 145.84 220.002 145.854 221.17 146.101C224.53 146.745 227.852 146.432 230.736 144.596C233.087 142.978 235.044 140.81 235.696 137.939C236.182 133.664 235.936 130.422 233.278 126.894C232.168 125.51 230.8 124.485 229.335 123.504C229.335 123.347 229.335 123.191 229.335 123.03C229.194 123.006 229.053 122.982 228.908 122.956C228.308 122.767 228.122 122.53 227.686 122.084C227.385 121.852 227.081 121.626 226.773 121.403C224.764 119.906 224.764 119.906 224.388 118.771C224.246 118.701 224.105 118.631 223.96 118.558C221.726 117.426 220.212 113.948 219.44 111.672C218.208 107.913 218.421 103.619 220.206 100.047C221.038 98.7258 222.112 97.7363 223.548 97.1329C226.676 96.6368 228.841 97.6638 231.456 99.3662Z" fill="#CBDDE1"/>
</g>
<defs>
<linearGradient id="paint0_linear_64_12" x1="79.658" y1="-2.18557e-08" x2="79.6579" y2="339" gradientUnits="userSpaceOnUse">
<stop stop-color="white" stop-opacity="0"/>
<stop offset="0.515" stop-color="white" stop-opacity="0.1"/>
<stop offset="1" stop-color="white" stop-opacity="0"/>
</linearGradient>
<linearGradient id="paint1_linear_64_12" x1="127.329" y1="-1.99254e-08" x2="127.329" y2="339" gradientUnits="userSpaceOnUse">
<stop stop-color="white" stop-opacity="0"/>
<stop offset="0.515" stop-color="white" stop-opacity="0.1"/>
<stop offset="1" stop-color="white" stop-opacity="0"/>
</linearGradient>
<linearGradient id="paint2_linear_64_12" x1="175" y1="-1.99254e-08" x2="175" y2="339" gradientUnits="userSpaceOnUse">
<stop stop-color="white" stop-opacity="0"/>
<stop offset="0.515" stop-color="white" stop-opacity="0.1"/>
<stop offset="1" stop-color="white" stop-opacity="0"/>
</linearGradient>
<linearGradient id="paint3_linear_64_12" x1="222.671" y1="-1.99254e-08" x2="222.671" y2="339" gradientUnits="userSpaceOnUse">
<stop stop-color="white" stop-opacity="0"/>
<stop offset="0.515" stop-color="white" stop-opacity="0.1"/>
<stop offset="1" stop-color="white" stop-opacity="0"/>
</linearGradient>
<linearGradient id="paint4_linear_64_12" x1="270.342" y1="-1.99254e-08" x2="270.342" y2="339" gradientUnits="userSpaceOnUse">
<stop stop-color="white" stop-opacity="0"/>
<stop offset="0.515" stop-color="white" stop-opacity="0.1"/>
<stop offset="1" stop-color="white" stop-opacity="0"/>
</linearGradient>
<linearGradient id="paint5_linear_64_12" x1="351" y1="76.9177" x2="4.44851e-08" y2="76.9177" gradientUnits="userSpaceOnUse">
<stop stop-color="white" stop-opacity="0"/>
<stop offset="0.515" stop-color="white" stop-opacity="0.1"/>
<stop offset="1" stop-color="white" stop-opacity="0"/>
</linearGradient>
<linearGradient id="paint6_linear_64_12" x1="351" y1="122.959" x2="4.52589e-08" y2="122.959" gradientUnits="userSpaceOnUse">
<stop stop-color="white" stop-opacity="0"/>
<stop offset="0.515" stop-color="white" stop-opacity="0.1"/>
<stop offset="1" stop-color="white" stop-opacity="0"/>
</linearGradient>
<linearGradient id="paint7_linear_64_12" x1="351" y1="169" x2="4.52589e-08" y2="169" gradientUnits="userSpaceOnUse">
<stop stop-color="white" stop-opacity="0"/>
<stop offset="0.515" stop-color="white" stop-opacity="0.1"/>
<stop offset="1" stop-color="white" stop-opacity="0"/>
</linearGradient>
<linearGradient id="paint8_linear_64_12" x1="351" y1="215.041" x2="4.52589e-08" y2="215.041" gradientUnits="userSpaceOnUse">
<stop stop-color="white" stop-opacity="0"/>
<stop offset="0.515" stop-color="white" stop-opacity="0.1"/>
<stop offset="1" stop-color="white" stop-opacity="0"/>
</linearGradient>
<linearGradient id="paint9_linear_64_12" x1="351" y1="261.083" x2="4.52589e-08" y2="261.082" gradientUnits="userSpaceOnUse">
<stop stop-color="white" stop-opacity="0"/>
<stop offset="0.515" stop-color="white" stop-opacity="0.1"/>
<stop offset="1" stop-color="white" stop-opacity="0"/>
</linearGradient>
<clipPath id="clip0_64_12">
<rect width="135" height="155" fill="white" transform="translate(108 97)"/>
</clipPath>
</defs>
</svg>
