<svg width="351" height="349" viewBox="0 0 351 349" fill="none" xmlns="http://www.w3.org/2000/svg">
<rect width="351" height="349" fill="#022229"/>
<line x1="80.658" y1="2.18557e-08" x2="80.6579" y2="339" stroke="url(#paint0_linear_64_12)"/>
<line x1="128.329" y1="1.99254e-08" x2="128.329" y2="339" stroke="url(#paint1_linear_64_12)"/>
<line x1="176" y1="1.99254e-08" x2="176" y2="339" stroke="url(#paint2_linear_64_12)"/>
<line x1="223.671" y1="1.99254e-08" x2="223.671" y2="339" stroke="url(#paint3_linear_64_12)"/>
<line x1="271.342" y1="1.99254e-08" x2="271.342" y2="339" stroke="url(#paint4_linear_64_12)"/>
<line x1="351" y1="77.9177" x2="-4.4485e-08" y2="77.9177" stroke="url(#paint5_linear_64_12)"/>
<line x1="351" y1="123.959" x2="-4.52587e-08" y2="123.959" stroke="url(#paint6_linear_64_12)"/>
<line x1="351" y1="170" x2="-4.52587e-08" y2="170" stroke="url(#paint7_linear_64_12)"/>
<line x1="351" y1="216.041" x2="-4.52587e-08" y2="216.041" stroke="url(#paint8_linear_64_12)"/>
<line x1="351" y1="262.083" x2="-4.52587e-08" y2="262.082" stroke="url(#paint9_linear_64_12)"/>
<g clip-path="url(#clip0_64_12)">
<path d="M258.957 57.6946C259.413 58.0666 259.867 58.4433 260.314 58.8261C262.975 60.9003 266.692 61.7182 269.896 62.6261C270.176 62.7059 270.456 62.7856 270.745 62.8678C271.28 63.0173 271.815 63.1622 272.353 63.3017C273.957 63.7423 275.039 64.3244 276.264 65.4534C275.049 65.6973 273.833 65.9411 272.581 66.1924C273.482 67.9997 274.106 68.0278 275.895 68.7786C276.017 69.1444 276.138 69.5102 276.264 69.887C274.9 70.3431 273.631 70.3136 272.21 70.3214C271.605 70.33 270.999 70.3389 270.393 70.3481C269.448 70.3609 268.502 70.3718 267.556 70.3769C259.954 70.3769 259.954 70.3769 253.065 73.2122C252.311 74.7256 252.606 76.2429 253.088 77.8074C254.557 80.8374 257.153 82.7458 259.782 84.719C261.384 85.9273 262.933 87.1984 264.48 88.4758C264.744 88.6925 265.009 88.9093 265.281 89.1326C267.156 90.6835 268.89 92.3141 270.487 94.1563C270.675 94.3711 270.864 94.5859 271.058 94.8072C271.477 95.3801 271.477 95.3801 271.477 96.1191C271.72 96.1191 271.963 96.1191 272.213 96.1191C273.318 98.2435 273.318 98.2435 273.318 99.0748C273.561 99.0748 273.804 99.0748 274.054 99.0748C277.602 107.545 278.288 116.484 275.015 125.191C274.491 126.366 273.924 127.498 273.318 128.632C273.056 129.147 273.056 129.147 272.788 129.673C270.645 133.78 268.039 137.82 264.848 141.194C264.605 141.194 264.362 141.194 264.112 141.194C264.013 141.43 263.914 141.666 263.813 141.91C263.375 142.672 263.375 142.672 262.271 143.041C262.271 143.285 262.271 143.529 262.271 143.78C261.772 144.258 261.772 144.258 261.07 144.799C260.683 145.098 260.683 145.098 260.288 145.403C260.008 145.614 259.728 145.825 259.44 146.043C259.154 146.26 258.868 146.478 258.573 146.702C256.206 148.479 253.769 150.03 251.224 151.539C250.154 152.195 249.089 152.859 248.025 153.525C247.64 153.763 247.64 153.763 247.248 154.006C246.282 154.608 245.402 155.163 244.595 155.973C244.47 157.03 244.47 157.03 244.469 158.274C244.458 158.744 244.448 159.214 244.437 159.698C244.433 159.946 244.429 160.193 244.425 160.449C244.255 169.931 243.164 177.518 236.126 184.421C233.326 186.92 230.359 188.824 226.92 190.333C226.526 190.518 226.132 190.703 225.726 190.894C217.933 194.334 209.522 194.793 201.132 194.943C200.335 194.957 199.539 194.976 198.743 194.996C198.275 195.005 197.808 195.014 197.326 195.024C195.927 195.141 194.731 195.399 193.41 195.875C192.958 196.7 192.958 196.7 192.674 197.722C191.302 199.999 189.759 201.171 187.519 202.548C185.435 203.839 183.823 204.971 182.363 206.959C182.126 207.271 181.889 207.584 181.645 207.906C181.434 208.203 181.223 208.5 181.005 208.806C180.684 209.252 180.684 209.252 180.357 209.707C179.738 210.733 179.386 211.723 179.049 212.87C183.103 211.706 187.125 210.455 191.137 209.155C193.391 208.425 195.65 207.713 197.915 207.017C199.272 206.599 200.628 206.176 201.984 205.751C203.311 205.336 204.639 204.921 205.968 204.507C206.647 204.295 207.327 204.082 208.007 203.869C224.477 198.705 224.477 198.705 228.508 200.47C231.434 202.243 233.19 205.237 234.893 208.11C235.961 209.905 237.105 211.651 238.243 213.401C238.448 213.716 238.652 214.031 238.863 214.356C239.059 214.658 239.255 214.959 239.457 215.27C239.644 215.558 239.831 215.845 240.023 216.141C240.476 216.829 240.939 217.509 241.405 218.189C242.1 219.281 242.327 220.077 242.386 221.368C241.649 222.107 241.649 222.107 240.568 222.13C237.499 221.59 234.637 219.037 232.443 216.934C232.443 216.69 232.443 216.447 232.443 216.195C232.079 216.073 231.714 215.952 231.339 215.826C229.866 214.179 229.866 214.179 229.866 213.24C229.258 213.484 228.651 213.727 228.025 213.979C228.055 214.321 228.086 214.663 228.118 215.016C228.156 215.459 228.193 215.901 228.232 216.357C228.27 216.799 228.309 217.24 228.348 217.695C228.363 218.054 228.378 218.412 228.393 218.782C228.271 218.904 228.15 219.026 228.025 219.151C226.327 219.151 225.639 218.97 224.411 217.766C223.368 216.127 223.236 214.324 223.038 212.424C222.964 211.344 222.964 211.344 222.133 210.653C219.187 210.294 216.523 210.821 213.732 211.716C213.176 211.886 213.176 211.886 212.609 212.06C211.362 212.445 210.119 212.841 208.876 213.24C208.407 213.39 207.938 213.539 207.469 213.689C204.557 214.621 201.649 215.567 198.743 216.517C197.044 217.07 195.343 217.617 193.64 218.158C193.369 218.244 193.098 218.331 192.819 218.419C190.67 219.097 188.508 219.723 186.343 220.347C184.582 220.863 182.894 221.476 181.215 222.218C180.522 222.476 180.522 222.476 179.417 222.476C179.417 222.72 179.417 222.964 179.417 223.215C174.608 225.845 174.608 225.845 172.053 225.802C171.117 225.514 170.349 225.15 169.475 224.693C169.475 224.449 169.475 224.205 169.475 223.954C169.11 223.832 168.746 223.71 168.37 223.585C167.288 221.908 167.088 220.412 167.127 218.458C167.13 218.198 167.132 217.937 167.135 217.668C167.185 215.698 167.512 214.257 168.37 212.501C168.492 212.135 168.613 211.769 168.738 211.392C168.981 211.392 169.224 211.392 169.475 211.392C169.507 211.169 169.538 210.945 169.571 210.714C170.141 207.307 171.587 204.573 173.52 201.744C173.967 200.91 174.115 200.132 174.262 199.2C172.353 199.825 170.447 200.46 168.545 201.107C167.966 201.304 167.387 201.499 166.807 201.692C163.649 202.748 160.953 203.947 158.341 206.07C157.202 206.98 156.037 207.856 154.877 208.738C153.855 209.517 152.835 210.297 151.815 211.079C150.387 212.174 148.956 213.264 147.519 214.348C147.187 214.599 146.856 214.85 146.515 215.109C145.829 215.613 145.131 216.102 144.426 216.578C142.245 218.068 140.888 219.214 140.016 221.737C138.798 225.21 136.518 227.676 133.25 229.358C132.072 229.91 131.375 230.235 130.073 230.235C129.952 230.601 129.83 230.967 129.705 231.344C129.462 231.344 129.219 231.344 128.969 231.344C128.9 231.587 128.832 231.831 128.762 232.082C128.114 233.439 127.238 234.391 126.229 235.493C125.629 236.12 125.629 236.12 125.286 236.885C125.043 236.885 124.8 236.885 124.55 236.885C124.451 237.183 124.352 237.48 124.251 237.786C124.106 238.098 123.962 238.411 123.813 238.733C123.449 238.855 123.084 238.977 122.709 239.102C122.459 239.717 122.215 240.333 121.972 240.95C121.374 241.787 120.771 242.594 120.131 243.397C118.796 245.095 118.796 245.095 117.553 246.861C117.31 246.861 117.067 246.861 116.817 246.861C116.452 247.775 116.452 247.775 116.08 248.708C115.837 248.708 115.594 248.708 115.344 248.708C115.23 248.998 115.116 249.288 114.999 249.586C114.607 250.556 114.607 250.556 114.239 251.295C113.996 251.295 113.753 251.295 113.503 251.295C113.138 252.209 113.138 252.209 112.766 253.142C112.523 253.142 112.28 253.142 112.03 253.142C111.895 253.535 111.895 253.535 111.757 253.936C111.231 255.131 110.571 256.034 109.774 257.068C109.475 257.46 109.176 257.853 108.877 258.247C108.726 258.443 108.576 258.64 108.421 258.843C104.957 263.373 104.957 263.373 102.087 268.29C101.844 268.29 101.601 268.29 101.351 268.29C101.259 268.546 101.167 268.802 101.072 269.065C100.546 270.297 99.8946 271.379 99.1876 272.516C98.9379 272.919 98.6882 273.323 98.431 273.738C98.1794 274.135 97.9278 274.532 97.6686 274.94C97.4227 275.331 97.1768 275.721 96.9235 276.122C96.2698 277.052 95.6867 277.692 94.8147 278.404C91.9433 280.842 88.6935 283.714 86.9897 287.133C86.7467 287.133 86.5036 287.133 86.2532 287.133C86.1545 287.46 86.0558 287.788 85.954 288.126C85.5428 289.277 85.0669 290.172 84.412 291.197C83.747 292.253 83.208 293.27 82.755 294.43C82.4816 295.024 82.4816 295.024 82.2026 295.631C81.8381 295.752 81.4735 295.874 81.0979 296C79.529 294.578 79.3121 293.787 79.156 291.695C78.9697 286.116 80.6621 281.548 84.1819 277.18C84.8942 276.435 84.8942 276.435 84.7803 275.31C84.5273 275.349 84.2743 275.389 84.0136 275.43C83.6818 275.474 83.35 275.518 83.0081 275.564C82.6792 275.611 82.3502 275.658 82.0113 275.707C81.0979 275.679 81.0979 275.679 80.4247 275.183C79.9932 274.571 79.9932 274.571 80.0162 273.763C81.1076 270.478 82.6772 268.281 85.7987 266.649C88.034 265.666 90.2749 265.008 92.6629 264.512C93.6794 264.208 94.2683 263.773 95.0909 263.118C95.334 263.118 95.577 263.118 95.8274 263.118C95.9242 262.845 96.0211 262.573 96.1208 262.292C96.5654 261.267 97.0557 260.56 97.7606 259.7C98.9098 258.268 99.9167 256.79 100.886 255.23C101.116 254.928 101.116 254.928 101.351 254.62C101.594 254.62 101.837 254.62 102.087 254.62C102.181 254.358 102.274 254.097 102.371 253.828C102.867 252.672 103.477 251.712 104.182 250.671C104.442 250.285 104.703 249.9 104.971 249.502C105.912 248.131 106.858 246.765 107.815 245.405C108.247 244.788 108.667 244.163 109.084 243.536C109.327 243.536 109.57 243.536 109.82 243.536C109.863 243.323 109.906 243.11 109.95 242.891C110.207 241.993 110.565 241.343 111.063 240.557C111.218 240.309 111.373 240.061 111.532 239.805C112.03 239.102 112.03 239.102 112.548 238.598C113.188 237.939 113.674 237.256 114.186 236.493C114.384 236.2 114.581 235.908 114.785 235.607C114.992 235.297 115.199 234.988 115.413 234.669C116.778 232.642 118.153 230.638 119.625 228.688C120.95 226.876 121.634 225.205 122.215 223.055C123.175 219.597 124.579 217.219 127.496 215.087C128.443 214.577 129.424 214.178 130.419 213.771C133.722 212.317 136.286 210.265 138.988 207.9C139.94 207.075 140.921 206.292 141.903 205.504C142.997 204.61 144.028 203.703 145.01 202.687C145.306 202.39 145.602 202.092 145.908 201.786C146.151 201.786 146.394 201.786 146.644 201.786C146.887 201.299 147.13 200.811 147.381 200.308C147.624 200.308 147.867 200.308 148.117 200.308C148.214 200.093 148.311 199.878 148.411 199.656C148.875 198.791 149.39 198.167 150.05 197.445C150.961 196.419 151.851 195.385 152.697 194.305C152.879 194.074 153.061 193.844 153.248 193.606C153.763 192.837 153.763 192.837 153.641 191.441C153.228 191.333 153.228 191.333 152.808 191.222C151.584 190.897 150.36 190.569 149.137 190.239C148.395 190.038 147.651 189.838 146.908 189.639C133.337 185.988 133.337 185.988 127.128 182.943C126.702 182.742 126.277 182.54 125.839 182.332C123.63 181.268 121.551 180.198 119.669 178.607C117.315 176.899 114.601 177.2 111.861 177.577C110.469 177.817 109.086 178.086 107.703 178.371C107.458 178.422 107.213 178.472 106.961 178.524C101.374 179.681 96.7881 181.514 91.9671 184.599C89.845 185.914 89.845 185.914 88.257 185.831C87.8119 185.682 87.8119 185.682 87.3579 185.53C86.3426 182.473 87.1013 179.589 88.1404 176.642C88.4504 175.596 88.5264 174.79 88.4627 173.707C86.055 173.752 84.8952 175.152 83.2843 176.755C83.0287 177.002 82.7731 177.249 82.5097 177.504C81.1644 178.809 79.8396 180.134 78.5202 181.466C78.152 181.835 78.152 181.835 77.2774 181.927C76.3108 181.835 76.3108 181.835 75.6664 181.35C74.425 179.669 74.6312 177.534 74.8379 175.554C76.0969 169.857 76.0969 169.857 77.0473 168.904C77.0623 168.288 77.063 167.672 77.0473 167.056C74.2201 167.105 72.2084 168.096 69.7689 169.423C68.7107 169.947 67.9032 170.265 66.7366 170.382C66.4936 170.26 66.2506 170.138 66.0002 170.012C65.5048 163.551 69.8371 157.74 73.7332 153.017C79.4863 147.178 87.0056 143.671 95.206 143.619C97.5279 143.643 99.6415 143.955 101.877 144.617C103.171 144.988 104.433 145.129 105.77 145.258C105.708 145.004 105.646 144.75 105.583 144.489C105.47 143.989 105.47 143.989 105.356 143.48C105.279 143.15 105.202 142.82 105.123 142.48C105.033 141.563 105.033 141.563 105.77 140.455C106.467 140.32 106.467 140.32 107.33 140.325C107.654 140.323 107.979 140.322 108.313 140.32C108.667 140.324 109.02 140.327 109.385 140.331C110.141 140.328 110.897 140.324 111.653 140.32C112.05 140.32 112.446 140.32 112.855 140.319C121.359 140.298 129.585 140.061 137.438 136.391C137.923 136.172 138.409 135.953 138.894 135.734C141.504 134.541 144.053 133.258 146.575 131.888C159.04 125.161 172.425 119.661 186.598 118.195C186.884 118.165 187.169 118.135 187.464 118.105C203.147 116.67 215.903 121.551 228.752 130.01C231.002 131.427 233.176 131.616 235.798 131.051C236.263 130.916 236.727 130.781 237.192 130.645C239.018 130.254 241.055 130.276 242.881 130.662C248.131 131.667 253.325 131.178 257.832 128.312C261.506 125.785 264.565 122.4 265.585 117.918C266.344 111.243 265.96 106.181 261.805 100.674C260.07 98.5133 257.932 96.9117 255.642 95.3801C255.642 95.1363 255.642 94.8924 255.642 94.6412C255.422 94.6031 255.202 94.565 254.975 94.5258C254.037 94.2299 253.746 93.8605 253.065 93.1633C252.595 92.8021 252.118 92.4483 251.638 92.1011C248.498 89.7633 248.498 89.7633 247.909 87.9908C247.689 87.8813 247.468 87.7717 247.241 87.6589C243.749 85.8918 241.383 80.4613 240.176 76.9069C238.251 71.0381 238.584 64.335 241.373 58.7569C242.674 56.6947 244.353 55.1498 246.598 54.2078C251.487 53.4333 254.87 55.0367 258.957 57.6946Z" fill="#CBDDE1"/>
</g>
<defs>
<linearGradient id="paint0_linear_64_12" x1="79.658" y1="-2.18557e-08" x2="79.6579" y2="339" gradientUnits="userSpaceOnUse">
<stop stop-color="white" stop-opacity="0"/>
<stop offset="0.515" stop-color="white" stop-opacity="0.1"/>
<stop offset="1" stop-color="white" stop-opacity="0"/>
</linearGradient>
<linearGradient id="paint1_linear_64_12" x1="127.329" y1="-1.99254e-08" x2="127.329" y2="339" gradientUnits="userSpaceOnUse">
<stop stop-color="white" stop-opacity="0"/>
<stop offset="0.515" stop-color="white" stop-opacity="0.1"/>
<stop offset="1" stop-color="white" stop-opacity="0"/>
</linearGradient>
<linearGradient id="paint2_linear_64_12" x1="175" y1="-1.99254e-08" x2="175" y2="339" gradientUnits="userSpaceOnUse">
<stop stop-color="white" stop-opacity="0"/>
<stop offset="0.515" stop-color="white" stop-opacity="0.1"/>
<stop offset="1" stop-color="white" stop-opacity="0"/>
</linearGradient>
<linearGradient id="paint3_linear_64_12" x1="222.671" y1="-1.99254e-08" x2="222.671" y2="339" gradientUnits="userSpaceOnUse">
<stop stop-color="white" stop-opacity="0"/>
<stop offset="0.515" stop-color="white" stop-opacity="0.1"/>
<stop offset="1" stop-color="white" stop-opacity="0"/>
</linearGradient>
<linearGradient id="paint4_linear_64_12" x1="270.342" y1="-1.99254e-08" x2="270.342" y2="339" gradientUnits="userSpaceOnUse">
<stop stop-color="white" stop-opacity="0"/>
<stop offset="0.515" stop-color="white" stop-opacity="0.1"/>
<stop offset="1" stop-color="white" stop-opacity="0"/>
</linearGradient>
<linearGradient id="paint5_linear_64_12" x1="351" y1="76.9177" x2="4.44851e-08" y2="76.9177" gradientUnits="userSpaceOnUse">
<stop stop-color="white" stop-opacity="0"/>
<stop offset="0.515" stop-color="white" stop-opacity="0.1"/>
<stop offset="1" stop-color="white" stop-opacity="0"/>
</linearGradient>
<linearGradient id="paint6_linear_64_12" x1="351" y1="122.959" x2="4.52589e-08" y2="122.959" gradientUnits="userSpaceOnUse">
<stop stop-color="white" stop-opacity="0"/>
<stop offset="0.515" stop-color="white" stop-opacity="0.1"/>
<stop offset="1" stop-color="white" stop-opacity="0"/>
</linearGradient>
<linearGradient id="paint7_linear_64_12" x1="351" y1="169" x2="4.52589e-08" y2="169" gradientUnits="userSpaceOnUse">
<stop stop-color="white" stop-opacity="0"/>
<stop offset="0.515" stop-color="white" stop-opacity="0.1"/>
<stop offset="1" stop-color="white" stop-opacity="0"/>
</linearGradient>
<linearGradient id="paint8_linear_64_12" x1="351" y1="215.041" x2="4.52589e-08" y2="215.041" gradientUnits="userSpaceOnUse">
<stop stop-color="white" stop-opacity="0"/>
<stop offset="0.515" stop-color="white" stop-opacity="0.1"/>
<stop offset="1" stop-color="white" stop-opacity="0"/>
</linearGradient>
<linearGradient id="paint9_linear_64_12" x1="351" y1="261.083" x2="4.52589e-08" y2="261.082" gradientUnits="userSpaceOnUse">
<stop stop-color="white" stop-opacity="0"/>
<stop offset="0.515" stop-color="white" stop-opacity="0.1"/>
<stop offset="1" stop-color="white" stop-opacity="0"/>
</linearGradient>
<clipPath id="clip0_64_12">
<rect width="211" height="242" fill="white" transform="translate(66 54)"/>
</clipPath>
</defs>
</svg>
