<svg width="116" height="109" viewBox="0 0 116 109" fill="none" xmlns="http://www.w3.org/2000/svg">
<path d="M107.395 59.379C111.796 32.2404 93.1127 6.71238 65.6639 2.36061C38.2151 -1.99115 12.3954 16.4813 7.9939 43.6199C3.59241 70.7585 22.2759 96.2865 49.7247 100.638C77.1735 104.99 102.993 86.5176 107.395 59.379Z" fill="#23292F"/>
<path d="M82.6554 22.6666H92.8401L71.6506 43.414C63.9677 50.929 51.5274 50.929 43.8582 43.414L22.655 22.6666H32.8533L48.9573 38.4265C53.8377 43.1842 61.671 43.1842 66.5514 38.4265L82.6691 22.6666H82.6554Z" fill="white"/>
<path d="M32.7029 80.3672H22.5046L43.8308 59.4982C51.5137 51.9832 63.954 51.9832 71.6232 59.4982L92.9495 80.3672H82.7648L66.5241 64.4722C61.6437 59.7145 53.8104 59.7145 48.93 64.4722L32.6893 80.3672H32.7029Z" fill="white"/>
</svg>
