<svg width="102" height="100" viewBox="0 0 102 100" fill="none" xmlns="http://www.w3.org/2000/svg">
<path d="M50.9079 99.7673C78.7073 99.7673 101.243 77.486 101.243 50.0007C101.243 22.5154 78.7073 0.2341 50.9079 0.2341C23.1085 0.2341 0.572571 22.5154 0.572571 50.0007C0.572571 77.486 23.1085 99.7673 50.9079 99.7673Z" fill="#F30504"/>
<path d="M70.6209 53.8257C70.5799 54.015 70.0331 54.5691 69.4726 54.9881C67.8458 56.164 64.9203 57.2723 61.9537 57.786C60.2586 58.0833 58.5771 58.1374 58.0713 57.8941C57.7432 57.7319 57.6885 57.5968 57.8115 57.1778C58.0576 56.2992 58.8642 55.3396 60.1219 54.4475C60.7644 53.9879 63.3481 52.4336 64.5512 51.7848C66.5334 50.7035 68.1465 50.0682 69.2265 49.9196C69.5683 49.879 69.9784 49.8655 70.1151 49.9196C70.3339 50.0007 70.5662 50.6224 70.6619 51.3658C70.703 51.7577 70.6893 53.5149 70.6209 53.8257Z" fill="black"/>
<path d="M42.7739 57.6914C42.7055 57.8266 42.3501 57.9887 41.94 58.0428C41.5435 58.0969 40.3131 58.0699 39.6159 57.9888C37.1142 57.6644 34.4484 56.9075 32.5072 55.9613C31.4135 55.4342 30.6343 54.9071 30.0602 54.3394L29.7321 54.0015L29.691 53.5555C29.6364 52.785 29.65 51.5686 29.7321 51.1361C29.7867 50.7711 29.9234 50.4197 30.1012 50.1088C30.165 50.0277 30.3381 49.9872 30.6207 49.9872C31.1401 49.9872 31.5776 50.0683 32.2885 50.2845C33.7376 50.7306 35.9112 51.7983 38.536 53.3662C40.7096 54.6502 41.5298 55.2855 42.1587 56.1505C42.5825 56.6912 42.8695 57.4481 42.7602 57.6779L42.7739 57.6914Z" fill="black"/>
<path d="M59.5204 73.9649C59.5204 73.9649 59.3837 74.5596 59.206 75.2219C59.0283 75.8842 58.8915 76.4248 58.8915 76.4519C58.7548 76.4519 58.6455 76.4789 58.5088 76.4519H58.126L57.6065 77.6683C57.3194 78.3306 57.0597 78.9523 57.0323 79.047L56.964 79.2091L56.7179 78.8172L56.4719 78.4252V75.1948L56.3762 75.2219C56.1711 75.2624 54.7494 75.4517 54.1205 75.5193C51.5368 75.7761 48.9256 75.722 46.3556 75.357C45.9454 75.303 45.59 75.2489 45.5764 75.2624C45.5764 75.2624 45.5763 76.0193 45.6037 76.9384L45.6447 78.6009L45.4396 78.8983C45.3303 79.0605 45.2209 79.1956 45.2209 79.2091C45.1799 79.2497 45.0705 79.0605 44.7971 78.5198C44.4964 77.9657 44.2913 77.3575 44.1409 76.7492L44.0589 76.4113L43.6898 76.4383L43.3207 76.4789L43.225 76.0464C43.184 75.8166 43.1156 75.4517 43.0883 75.2489L43.0473 74.8705L42.7465 74.6001C42.5688 74.4514 42.3911 74.3028 42.3501 74.2757C42.2954 74.2352 42.268 74.1406 42.268 74.073V73.9378H43.7445L45.2209 73.9649L45.2619 74.1136L45.3029 74.2622L45.8087 74.2893C46.0958 74.2893 46.9844 74.3298 47.791 74.3433L49.2674 74.3839L49.6502 73.8027L50.0466 73.2215H50.5388V72.005L50.5115 70.7886L49.8552 70.5047C47.7636 69.5991 46.5333 68.5584 46.0685 67.2879C45.9728 67.0311 45.9728 66.9364 45.9454 65.7741C45.9454 64.6117 45.9454 64.5171 46.0138 64.2603C46.1778 63.6791 46.6426 63.2195 47.2305 63.0708C47.4355 63.0168 47.9687 63.0168 50.7575 63.0168H54.0385L54.4076 63.206C54.845 63.4222 55.0501 63.5709 55.2962 63.8953C55.5833 64.2738 55.6653 64.5576 55.6653 65.274C55.6653 66.2877 55.5969 67.1662 55.4876 67.5177C55.3372 67.9907 55.0911 68.4503 54.804 68.8557C54.2162 69.5991 53.1362 70.3561 52.1519 70.694L51.8648 70.8021V72.0321L51.8922 73.262L52.1519 73.289L52.4117 73.3161L52.7671 73.8432L53.1089 74.3704H54.6947C55.5696 74.3704 56.3351 74.3704 56.4035 74.3974C56.5265 74.4244 56.5402 74.3974 56.6632 74.2082L56.7999 73.9919H58.1533C59.165 73.9514 59.4794 73.9649 59.4794 73.9919L59.5204 73.9649Z" fill="black"/>
<path d="M53.2729 77.3169C53.0542 77.452 52.8901 77.5061 52.8628 77.4791C52.8218 77.4791 52.6577 77.3304 52.48 77.1952L52.1656 76.9384L51.8375 77.2899C51.1129 78.0603 51.0993 78.1008 50.8805 78.1143C50.5524 78.1549 50.4841 78.0873 50.074 77.4926C49.8552 77.1952 49.6912 76.9249 49.6912 76.9249C49.6912 76.9249 49.5408 76.8979 49.3631 76.8843L49.035 76.8438L48.8846 77.1547L48.7343 77.4656L48.4609 77.3844C48.2421 77.3169 48.0371 77.2358 47.832 77.1412L47.4766 76.9654V76.3032H50.6208L53.765 76.3302V76.6411C53.7924 77.0195 53.8061 77.006 53.2866 77.2899L53.2729 77.3169Z" fill="black"/>
<path d="M82.8152 63.0573C82.8152 63.0573 82.8152 62.9222 82.7878 62.8005C79.958 62.5032 71.8513 62.3139 64.3461 68.4503C64.3461 68.4503 61.9264 57.4616 50.5798 57.4616C39.2331 57.4616 35.0226 68.4503 35.0226 68.4503C28.6657 61.6787 20.1489 62.1788 17.0867 62.6248C17.0867 62.6924 17.0867 62.7735 17.0867 62.8411C16.991 64.5306 17.0457 65.3415 17.3191 66.4093C18.2077 69.7343 20.9418 73.4107 25.2071 77.006C32.2201 82.899 41.7212 87.1432 48.912 87.6433C56.4171 88.1434 67.4904 83.8046 74.8589 77.4791C76.0209 76.4654 77.1008 75.3841 78.1261 74.2487C78.8644 73.4107 79.9443 71.9645 79.8623 71.9645C79.835 71.9645 79.8623 71.9375 79.9033 71.9239C79.9443 71.8969 79.9717 71.8699 79.9443 71.8428C79.9443 71.8428 79.9443 71.8023 79.9853 71.7888C80.0264 71.7888 80.04 71.7482 80.0264 71.7347C80.0264 71.7077 80.0264 71.6942 80.0674 71.6807C80.1084 71.6807 80.1084 71.6401 80.1084 71.6131C80.1084 71.586 80.1084 71.5725 80.1357 71.5725C80.1631 71.5725 80.1767 71.5319 80.1767 71.5184C80.1767 71.5049 80.2041 71.4644 80.2177 71.4644C80.2314 71.4644 80.2588 71.4374 80.2588 71.4238C80.2998 71.3292 80.3545 71.2346 80.4091 71.1535C80.5869 70.8832 81.2977 69.6397 81.3934 69.4234C82.0633 67.9096 82.4871 66.5715 82.6921 65.2334C82.7605 64.5846 82.8288 63.4087 82.7742 63.1249L82.8152 63.0573ZM53.2729 77.3169C53.0542 77.452 52.8901 77.5061 52.8628 77.4791C52.8218 77.4791 52.6577 77.3304 52.48 77.1952L52.1656 76.9384L51.8375 77.2899C51.1129 78.0603 51.0993 78.1008 50.8805 78.1143C50.5524 78.1549 50.4841 78.0873 50.074 77.4926C49.8552 77.1952 49.6912 76.9249 49.6912 76.9249C49.6912 76.9249 49.5408 76.8979 49.3631 76.8844L49.035 76.8438L48.8846 77.1547L48.7343 77.4656L48.4608 77.3844C48.2421 77.3169 48.037 77.2358 47.832 77.1412L47.4766 76.9654V76.3032H50.6208L53.765 76.3302V76.6411C53.7924 77.0195 53.8061 77.006 53.2866 77.2899L53.2729 77.3169ZM59.1786 75.2084C59.0009 75.8707 58.8642 76.4113 58.8642 76.4383C58.7412 76.4383 58.6181 76.4654 58.4814 76.4383H58.0986L57.5928 77.6683C57.3057 78.3306 57.046 78.9523 57.0187 79.0469L56.9503 79.2091L56.7042 78.8172L56.4582 78.4252V75.1948L56.3625 75.2219C56.1574 75.2624 54.7357 75.4517 54.1068 75.5192C51.5231 75.7761 48.912 75.722 46.3419 75.357C45.9318 75.303 45.5763 75.2489 45.5627 75.2624C45.5627 75.2624 45.5627 76.0193 45.59 76.9384L45.631 78.6009L45.426 78.8983C45.3166 79.0605 45.2072 79.1956 45.2072 79.2091C45.1662 79.2497 45.0569 79.0605 44.7834 78.5198C44.4827 77.9657 44.2776 77.3575 44.1272 76.7492L44.0452 76.4113L43.6761 76.4383L43.307 76.4789L43.2113 76.0464C43.1703 75.8166 43.1019 75.4516 43.0746 75.2489L43.0336 74.8705L42.7328 74.6001C42.5551 74.4514 42.3774 74.3028 42.3364 74.2757C42.2817 74.2352 42.2544 74.1406 42.2544 74.073V73.9378H43.7308L45.2072 73.9649L45.2482 74.1136L45.2892 74.2622L45.7951 74.2893C46.0821 74.2893 46.9707 74.3298 47.7773 74.3433L49.2537 74.3839L49.6365 73.8027L50.033 73.2215H50.5251V72.005L50.4978 70.7886L49.8416 70.5047C47.75 69.5991 46.5196 68.5584 46.0548 67.2879C45.9591 67.0311 45.9591 66.9364 45.9318 65.7741C45.9318 64.6117 45.9318 64.5171 46.0001 64.2602C46.1642 63.679 46.629 63.2195 47.2168 63.0708C47.4219 63.0168 47.955 63.0168 50.7438 63.0168H54.0248L54.3939 63.206C54.8314 63.4222 55.0364 63.5709 55.2825 63.8953C55.5696 64.2738 55.6516 64.5576 55.6516 65.274C55.6516 66.2877 55.5832 67.1662 55.4739 67.5176C55.3235 67.9907 55.0774 68.4503 54.7903 68.8557C54.2025 69.5991 53.1225 70.3561 52.1382 70.694L51.8512 70.8021V72.032L51.8785 73.262L52.1382 73.289L52.398 73.3161L52.7534 73.8432L53.0952 74.3704H54.681C55.5559 74.3704 56.3215 74.3703 56.3898 74.3974C56.5128 74.4244 56.5265 74.3974 56.6495 74.2082L56.7863 73.9919H58.1396C59.1923 73.9919 59.493 73.9919 59.493 74.0325C59.452 74.0325 59.3017 74.6001 59.1239 75.2489L59.1786 75.2084Z" fill="white"/>
<path d="M82.7197 61.8679C82.6923 61.3408 82.6513 60.6109 82.6103 60.2459C82.1045 54.9476 80.7374 50.6089 78.1264 46.0134C78.017 45.8377 77.9213 45.662 77.8666 45.5268C77.8393 45.4863 77.8256 45.4593 77.8256 45.4322C78.1947 44.3509 79.6985 39.796 80.8878 34.6057C82.5009 27.5503 83.5399 19.2919 80.3957 16.8184C80.3957 16.8184 74.9548 16.4265 67.682 23.482C65.7134 25.4283 63.8952 27.5503 62.2957 29.8075L61.7899 29.6453C58.8644 28.6992 55.8159 28.118 52.7673 27.9153C51.8514 27.8477 48.4064 27.8477 47.2854 27.9153C43.8951 28.1315 41.2976 28.6451 38.3448 29.6588C38.2217 29.6994 38.126 29.74 38.0167 29.7805C36.3489 27.5368 34.4896 25.4283 32.4527 23.509C24.8792 16.413 19.2332 16.832 19.2332 16.832C15.8976 19.3865 17.0322 28.0099 18.7547 35.3086C19.8894 40.1339 21.2838 44.378 21.8033 45.9053C21.7623 45.9864 21.7213 46.081 21.6666 46.1621C18.9188 51.6767 17.4287 56.9885 17.0732 62.6518C20.1628 62.2058 28.6523 61.7057 35.0228 68.4773C35.0228 68.4773 39.2334 57.4887 50.58 57.4887C61.9266 57.4887 64.3463 68.4773 64.3463 68.4773C71.8652 62.3409 79.9582 62.5437 82.788 62.8275C82.788 62.5978 82.747 62.2463 82.7334 61.8949L82.7197 61.8679ZM24.0179 41.472C24.0179 41.472 19.6023 30.5509 20.737 24.3064C20.9284 23.2522 21.2838 22.333 21.8306 21.6302C21.8306 21.6302 26.8478 22.1168 34.9271 30.9969C34.9271 30.9969 33.396 31.7268 31.3317 33.2947C31.3317 33.2947 31.3317 33.2947 31.3044 33.2947C29.0761 34.9842 26.2052 37.6739 24.0179 41.4449V41.472ZM42.7741 57.7049C42.7057 57.8401 42.3503 58.0023 41.9402 58.0563C41.5437 58.1104 40.3133 58.0833 39.6161 58.0022C37.1144 57.6779 34.4486 56.921 32.5074 55.9748C31.4137 55.4477 30.6345 54.9206 30.0604 54.3529L29.7323 54.015L29.6912 53.5689C29.6366 52.7985 29.6502 51.5821 29.7323 51.1496C29.7869 50.7846 29.9236 50.4332 30.1014 50.1223C30.1652 50.0412 30.3383 50.0007 30.6209 50.0007C31.1403 50.0007 31.5778 50.0818 32.2887 50.2981C33.7378 50.7441 35.9114 51.8119 38.5362 53.3797C40.7098 54.6638 41.53 55.299 42.1589 56.1641C42.5827 56.7047 42.8697 57.4616 42.7604 57.6914L42.7741 57.7049ZM70.6212 53.8393C70.5801 54.0285 70.0333 54.5827 69.4728 55.0017C67.846 56.1776 64.9205 57.2859 61.954 57.7995C60.2588 58.0969 58.5773 58.151 58.0715 57.9077C57.7434 57.7455 57.6887 57.6103 57.8118 57.1913C58.0578 56.3128 58.8644 55.3531 60.1221 54.461C60.7646 54.0015 63.3484 52.4471 64.5514 51.7983C66.5336 50.717 68.1468 50.0818 69.2267 49.9331C69.5685 49.8925 69.9786 49.879 70.1154 49.9331C70.3341 50.0142 70.5665 50.6359 70.6622 51.3793C70.7032 51.7713 70.6895 53.5284 70.6212 53.8393ZM68.6663 33.3082H68.6389C66.6567 31.7268 65.1666 30.9969 65.1666 30.9969C72.9725 22.1168 77.8119 21.6302 77.8119 21.6302C78.3451 22.3466 78.6869 23.2522 78.8782 24.3064C79.9719 30.5509 75.7066 41.4855 75.7066 41.4855C73.9158 38.3362 71.5234 35.5654 68.6663 33.3217V33.3082Z" fill="#FFA409"/>
<path d="M78.8781 24.2929C77.9621 24.1712 73.6012 24.1577 68.6524 33.3082H68.6251C66.6428 31.7268 65.1527 30.9969 65.1527 30.9969C72.9586 22.1168 77.7981 21.6302 77.7981 21.6302C78.3449 22.3466 78.6867 23.2522 78.8781 24.3064V24.2929Z" fill="#FF9300"/>
<path d="M75.7201 41.4584C73.9293 38.3092 71.5369 35.5383 68.6661 33.2947C73.6012 24.1442 77.9484 24.1713 78.8917 24.2794C79.9854 30.5374 75.7201 41.4584 75.7201 41.4584Z" fill="#FF8300"/>
<path d="M79.0558 24.3203C79.0558 24.3203 78.9327 24.293 78.8781 24.2794L79.0558 24.3203Z" fill="#FF8300"/>
<path d="M34.9269 30.9834C34.9269 30.9834 33.3958 31.7133 31.3315 33.2812C31.3315 33.2812 31.3315 33.2812 31.3042 33.2812C26.1914 24.1172 21.6801 24.1577 20.7094 24.2659C20.9008 23.2116 21.2563 22.2925 21.8031 21.5897C21.8031 21.5897 26.8202 22.0763 34.9132 30.9564L34.9269 30.9834Z" fill="#FF9300"/>
<path d="M31.3315 33.2947C29.0895 34.9977 26.2323 37.6739 24.0314 41.4585C24.0314 41.4585 19.6158 30.5374 20.7504 24.2794C21.7074 24.1578 26.2187 24.1442 31.3452 33.2947H31.3315Z" fill="#FF8300"/>
<path d="M20.7368 24.2929C20.7368 24.2929 20.6001 24.3202 20.5454 24.3338L20.7368 24.2929Z" fill="#FF8300"/>
<path d="M63.7583 47.5272C63.7583 47.5272 59.9715 47.757 60.45 44.8375C60.9284 41.918 63.8813 41.5666 64.7015 41.6882C65.5355 41.8099 68.8437 42.9723 68.2422 45.4322C67.6544 47.8922 66.8205 47.4191 66.3557 47.5407C65.8772 47.6624 63.7583 47.5407 63.7583 47.5407V47.5272Z" fill="white"/>
<path d="M35.8702 47.5272C35.8702 47.5272 32.0834 47.757 32.5619 44.8375C33.0404 41.918 35.9932 41.5666 36.8135 41.6882C37.6474 41.8099 40.9557 42.9723 40.3541 45.4322C39.7663 47.8922 38.9324 47.4191 38.4676 47.5407C37.9891 47.6624 35.8702 47.5407 35.8702 47.5407V47.5272Z" fill="white"/>
</svg>
