<svg width="102" height="100" viewBox="0 0 102 100" fill="none" xmlns="http://www.w3.org/2000/svg">
<path d="M99.992 61.9997C93.266 88.6671 65.9521 104.887 38.9799 98.2366C12.0214 91.5866 -4.38339 64.5813 2.34257 37.9274C9.06853 11.26 36.3688 -4.95944 63.341 1.67701C90.3132 8.32697 106.718 35.3323 99.992 61.9997Z" fill="#F7931A"/>
<path d="M73.3616 42.8743C74.3595 36.2514 69.2604 32.6966 62.2884 30.3178L64.544 21.3431L59.0211 19.9779L56.8201 28.7094C55.371 28.358 53.8809 28.0201 52.3908 27.6821L54.6055 18.8966L49.0825 17.5315L46.8132 26.4927C45.6102 26.2224 44.4345 25.9521 43.2862 25.6682V25.6412L35.6716 23.7625L34.2089 29.6014C34.2089 29.6014 38.31 30.5341 38.2144 30.5881C40.4563 31.1423 40.8528 32.602 40.7844 33.7644L38.2007 44.0232L34.5916 58.3368C34.3182 59.0127 33.621 60.0128 32.0626 59.6344C32.1172 59.7155 28.0434 58.6477 28.0434 58.6477L25.2956 64.9057L32.4864 66.6763C33.8261 67.0142 35.1385 67.3521 36.4235 67.6765L34.1405 76.7459L39.6634 78.111L41.9328 69.1363C43.4365 69.5418 44.8993 69.9202 46.3347 70.2716L44.0791 79.2058L49.602 80.571L51.885 71.5151C61.3041 73.2722 68.3855 72.5694 71.3657 64.1488C73.7717 57.3637 71.2426 53.4575 66.2939 50.9029C69.9029 50.0785 72.6234 47.7266 73.3479 42.8878L73.3616 42.8743ZM60.7436 60.3643C59.0347 67.1494 47.4831 63.4865 43.7373 62.5539L46.7722 50.538C50.5179 51.4571 62.5208 53.2953 60.7436 60.3643ZM62.4524 42.7662C60.894 48.9296 51.2835 45.8073 48.1666 45.0369L50.9144 34.1294C54.0313 34.8998 64.0792 36.3325 62.4524 42.7662Z" fill="white"/>
</svg>
