<svg width="101" height="100" viewBox="0 0 101 100" fill="none" xmlns="http://www.w3.org/2000/svg">
<path d="M50.3353 0.462708C78.1414 0.462708 100.671 22.7509 100.671 50.2292C100.671 77.7076 78.1277 99.9958 50.3353 99.9958C22.5429 99.9958 0 77.7212 0 50.2428C0 22.7644 22.5429 0.476196 50.3353 0.476196" fill="#F0B90B"/>
<path d="M37.3072 44.8904L44.9354 37.3754L46.5349 35.794L50.349 32.023L63.3224 44.8904L70.8686 37.3754L50.349 17.0606L29.761 37.3754L37.3072 44.8904Z" fill="white"/>
<path d="M50.3599 42.7206L42.7813 50.2135L50.3599 57.7065L57.9385 50.2135L50.3599 42.7206Z" fill="white"/>
<path d="M63.3224 55.5952L50.349 68.4221L45.783 63.9212L44.9491 63.0967L37.3072 55.5952L29.761 63.0696L50.349 83.3844L70.8686 63.0696L63.3224 55.5952Z" fill="white"/>
<path d="M24.3652 42.7521L16.7866 50.2451L24.3652 57.7381L31.9438 50.2451L24.3652 42.7521Z" fill="white"/>
<path d="M76.3137 42.752L68.7351 50.245L76.3137 57.738L83.8923 50.245L76.3137 42.752Z" fill="white"/>
</svg>
