<svg width="102" height="101" viewBox="0 0 102 101" fill="none" xmlns="http://www.w3.org/2000/svg">
<path d="M51.1451 100.305C78.9446 100.305 101.48 78.0233 101.48 50.538C101.48 23.0527 78.9446 0.771423 51.1451 0.771423C23.3457 0.771423 0.809814 23.0527 0.809814 50.538C0.809814 78.0233 23.3457 100.305 51.1451 100.305Z" fill="url(#paint0_linear_1_109)"/>
<path d="M27.3035 64.9462C27.7273 64.5272 28.3152 64.2839 28.944 64.2839H85.3081C86.3334 64.2839 86.8529 65.5139 86.1283 66.2303L75.0004 77.2324C74.5766 77.6514 73.9888 77.8947 73.3599 77.8947H16.9959C15.9706 77.8947 15.4511 76.6648 16.1756 75.9484L27.3035 64.9462Z" fill="white"/>
<path d="M27.3037 23.8435C27.7411 23.4245 28.329 23.1812 28.9441 23.1812H85.3082C86.3335 23.1812 86.853 24.4112 86.1284 25.1276L75.0006 36.1297C74.5768 36.5487 73.9889 36.792 73.3601 36.792H16.996C15.9707 36.792 15.4512 35.5621 16.1758 34.8457L27.3037 23.8435Z" fill="white"/>
<path d="M74.9868 44.2665C74.563 43.8475 73.9751 43.6042 73.3463 43.6042H16.9822C15.9569 43.6042 15.4374 44.8342 16.162 45.5505L27.2899 56.5527C27.7136 56.9717 28.3015 57.215 28.9303 57.215H85.2944C86.3197 57.215 86.8392 55.985 86.1146 55.2687L74.9868 44.2665Z" fill="white"/>
<defs>
<linearGradient id="paint0_linear_1_109" x1="95.2603" y1="6.05624" x2="14.3756" y2="89.478" gradientUnits="userSpaceOnUse">
<stop stop-color="#00FFA3"/>
<stop offset="1" stop-color="#DC1FFF"/>
</linearGradient>
</defs>
</svg>
