<svg width="102" height="101" viewBox="0 0 102 101" fill="none" xmlns="http://www.w3.org/2000/svg">
<path d="M50.8866 0.771423C78.6791 0.771423 101.222 23.0596 101.222 50.538C101.222 78.0164 78.6791 100.305 50.8866 100.305C23.0942 100.305 0.5513 78.0299 0.5513 50.538C0.5513 23.0461 23.0805 0.771423 50.8866 0.771423Z" fill="#53AE94"/>
<path d="M57.1068 43.9151V36.5082H74.2361V25.2222H27.6055V36.5082H44.7348V43.9016C30.8181 44.5368 20.3464 47.2536 20.3464 50.5245C20.3464 53.7954 30.8181 56.5122 44.7348 57.1474V80.8683H57.1204V57.1474C71.0098 56.5122 81.4542 53.7954 81.4542 50.5245C81.4542 47.2536 71.0098 44.5368 57.1204 43.9016M57.1204 55.1335C56.765 55.147 54.9742 55.2552 50.9823 55.2552C47.7834 55.2552 45.5414 55.1605 44.7485 55.12C32.4586 54.5929 23.2719 52.4708 23.2719 49.9433C23.2719 47.4158 32.4449 45.2937 44.7485 44.7531V53.025C45.5551 53.079 47.8517 53.2142 51.037 53.2142C54.8511 53.2142 56.7787 53.052 57.1341 53.025V44.7531C69.4104 45.2937 78.5697 47.4158 78.5697 49.9433C78.5697 52.4708 69.4104 54.5929 57.1341 55.1335" fill="white"/>
</svg>
