<svg width="109" height="107" viewBox="0 0 109 107" fill="none" xmlns="http://www.w3.org/2000/svg">
<path d="M108.332 57.6363C112.734 30.4977 94.0502 4.9697 66.6015 0.617939C39.1527 -3.73382 13.333 14.7386 8.93147 41.8772C4.52997 69.0158 23.2135 94.5439 50.6622 98.8956C78.111 103.247 103.931 84.775 108.332 57.6363Z" fill="#E84142"/>
<path fill-rule="evenodd" clip-rule="evenodd" d="M44.4062 69.5678H34.6316C32.581 69.5678 31.5695 69.5678 30.9406 69.1758C30.2708 68.7433 29.8606 68.0404 29.8196 67.2565C29.7786 66.5401 30.2844 65.6616 31.3097 63.891L55.4247 21.8556C56.45 20.0715 56.9695 19.1794 57.6257 18.8415C58.3366 18.4901 59.1705 18.4901 59.8814 18.8415C60.5376 19.1659 61.057 20.058 62.0823 21.8556L67.0448 30.4114L67.0721 30.4519C68.1795 32.3712 68.7399 33.3444 68.986 34.3581C69.2594 35.4664 69.2594 36.6423 68.986 37.7507C68.7399 38.7779 68.1794 39.7511 67.0585 41.6974L54.3857 63.8369L54.3585 63.891C53.2375 65.8238 52.6769 66.7969 51.8977 67.5403C51.0501 68.3513 50.0249 68.9325 48.8902 69.2704C47.8649 69.5542 46.7165 69.5542 44.4199 69.5542L44.4062 69.5678Z" fill="white"/>
<path fill-rule="evenodd" clip-rule="evenodd" d="M69.068 69.5678H83.0668C85.1311 69.5678 86.17 69.5678 86.7852 69.1623C87.455 68.7298 87.8788 68.0134 87.9062 67.2295C87.9472 66.5266 87.4414 65.6886 86.4708 64.0261C86.4434 63.9721 86.4024 63.918 86.3751 63.8504L79.362 51.9967L79.28 51.8616C78.2957 50.2126 77.8036 49.3881 77.1611 49.0637C76.4502 48.7123 75.6299 48.7123 74.9191 49.0637C74.2765 49.3881 73.7571 50.2667 72.7318 52.0103L65.746 63.864L65.7187 63.9045C64.6934 65.6481 64.1876 66.5266 64.2149 67.243C64.2696 68.0269 64.6661 68.7433 65.3359 69.1758C65.9374 69.5678 66.9764 69.5678 69.0407 69.5678H69.068Z" fill="white"/>
</svg>
