<!DOCTYPE svg PUBLIC "-//W3C//DTD SVG 1.1//EN" "http://www.w3.org/Graphics/SVG/1.1/DTD/svg11.dtd">

<!-- Uploaded to: SVG Repo, www.svgrepo.com, Transformed by: SVG Repo Mixer Tools -->
<svg width="256px" height="256px" viewBox="0 0 24.00 24.00" xmlns="http://www.w3.org/2000/svg" fill="#000000" transform="rotate(0)">
 

 	<path fill="none" stroke="#ff9900" stroke-width="1.6799999999999997" d="M12,18 L12,8 L12,18 Z M12,23 C18.0751322,23 23,18.0751322 23,12 C23,5.92486775 18.0751322,1 12,1 C5.92486775,1 1,5.92486775 1,12 C1,18.0751322 5.92486775,23 12,23 Z M17,12 L12,7 L7,12" transform="matrix(1 0 0 -1 0 24)"/> 

	<path fill="none" stroke="#ff9900" stroke-width="1.6799999999999997" d="M12,18 L12,8 L12,18 Z M12,23 C18.0751322,23 23,18.0751322 23,12 C23,5.92486775 18.0751322,1 12,1 C5.92486775,1 1,5.92486775 1,12 C1,18.0751322 5.92486775,23 12,23 Z M17,12 L12,7 L7,12" transform="matrix(1 0 0 -1 0 24)"/> 
 

</svg>