<svg width="144" height="121" viewBox="0 0 144 121" fill="none" xmlns="http://www.w3.org/2000/svg">
<path d="M107.466 106.425C127.123 86.9904 127.123 55.4799 107.466 36.0449C87.8086 16.6098 55.938 16.6098 36.2809 36.0448C16.6237 55.4799 16.6237 86.9904 36.2809 106.425C55.938 125.86 87.8086 125.86 107.466 106.425Z" fill="#C2A633"/>
<path d="M71.2771 44.3227H55.6379V68.2869H49.2127V74.153H55.6379V98.1172H73.8745C73.8745 98.1172 99.507 100.239 99.507 71.666C99.507 43.0928 74.9955 44.3227 71.2907 44.3227H71.2771ZM73.4507 88.1692H65.9045V74.153H77.2238V68.2869H65.9045V54.2707H73.0953C75.7884 54.2707 89.3223 55.3384 89.336 71.8687C89.3497 88.399 75.3783 88.1828 73.437 88.1828L73.4507 88.1692Z" fill="white"/>
</svg>
