<svg width="101" height="101" viewBox="0 0 101 101" fill="none" xmlns="http://www.w3.org/2000/svg">
<path d="M50.3792 100.29C78.281 100.29 100.715 78.1102 100.715 50.5237C100.715 22.9372 78.2673 0.743591 50.3792 0.743591C22.4911 0.743591 0.0439453 22.9236 0.0439453 50.5102C0.0439453 78.0967 22.4774 100.277 50.3792 100.277V100.29Z" fill="#2775CA"/>
<path d="M64.2139 58.3901C64.2139 51.1319 59.812 48.6449 50.9944 47.6042C44.7059 46.7797 43.4482 45.1172 43.4482 42.2112C43.4482 39.3052 45.5535 37.44 49.7367 37.44C53.5098 37.44 55.6151 38.6835 56.654 41.7922C56.8591 42.414 57.488 42.833 58.1305 42.833H61.4935C62.3274 42.833 62.9699 42.2112 62.9699 41.3732V41.1705C62.136 36.602 58.3492 33.0878 53.5371 32.6688V27.6948C53.5371 26.8704 52.9083 26.2351 51.8557 26.0323H48.7114C47.8775 26.0323 47.235 26.6541 47.0299 27.6948V32.4661C40.7414 33.2905 36.7496 37.44 36.7496 42.6302C36.7496 49.4694 40.9465 52.1726 49.7504 53.1999C55.6288 54.2406 57.5153 55.4841 57.5153 58.7956C57.5153 62.107 54.5761 64.3913 50.5979 64.3913C45.1434 64.3913 43.2568 62.107 42.628 58.9983C42.4229 58.1738 41.794 57.7548 41.1515 57.7548H37.5835C36.7496 57.7548 36.1071 58.3766 36.1071 59.2146V59.4173C36.941 64.6075 40.304 68.338 47.2213 69.3652V74.3392C47.2213 75.1637 47.8502 75.7989 48.9028 76.0017H52.047C52.8809 76.0017 53.5235 75.3799 53.7285 74.3392V69.3652C60.017 68.3245 64.2139 63.9723 64.2139 58.3766V58.3901Z" fill="white"/>
<path d="M39.6751 80.1647C23.3114 74.3527 14.9313 56.3221 21.0147 40.346C24.1589 31.6416 31.0763 25.0051 39.6751 21.8964C40.509 21.4774 40.9328 20.8557 40.9328 19.8149V16.9089C40.9328 16.0845 40.509 15.4492 39.6751 15.2465C39.4701 15.2465 39.0462 15.2465 38.8412 15.4492C18.9231 21.6666 8.01391 42.6167 14.3024 62.3098C18.0755 73.9202 27.0981 82.8409 38.8412 86.5713C39.6751 86.9903 40.5227 86.5713 40.7277 85.7469C40.9328 85.5441 40.9328 85.3279 40.9328 84.9224V82.0164C40.9328 81.3946 40.304 80.5566 39.6751 80.1512V80.1647ZM61.9036 15.4627C61.0697 15.0437 60.2221 15.4627 60.017 16.2872C59.8119 16.4899 59.812 16.7062 59.812 17.1117V20.0177C59.812 20.8422 60.4408 21.6802 61.0697 22.0992C77.4334 27.9111 85.8136 45.9417 79.7301 61.9178C76.5859 70.6222 69.6685 77.2587 61.0697 80.3674C60.2358 80.7864 59.812 81.4082 59.812 82.4489V85.3549C59.812 86.1794 60.2358 86.8146 61.0697 87.0174C61.2747 87.0174 61.6985 87.0174 61.9036 86.8146C81.8217 80.5972 92.7309 59.6471 86.4424 39.954C82.6693 28.1409 73.4416 19.2202 61.9036 15.4898V15.4627Z" fill="white"/>
</svg>
