<svg width="118" height="114" viewBox="0 0 118 114" fill="none" xmlns="http://www.w3.org/2000/svg">
<path d="M108.701 66.4825C113.433 39.3983 95.0616 13.6497 67.6679 8.97142C40.2741 4.29315 14.2312 22.4568 9.49952 49.5411C4.76779 76.6253 23.139 102.374 50.5328 107.052C77.9265 111.73 103.969 93.5668 108.701 66.4825Z" fill="#E6007A"/>
<path d="M59.0579 34.9168C67.061 34.9168 73.5488 31.1831 73.5488 26.5774C73.5488 21.9716 67.061 18.2379 59.0579 18.2379C51.0548 18.2379 44.567 21.9716 44.567 26.5774C44.567 31.1831 51.0548 34.9168 59.0579 34.9168Z" fill="white"/>
<path d="M59.0579 97.6995C67.061 97.6995 73.5488 93.9658 73.5488 89.36C73.5488 84.7542 67.061 81.0205 59.0579 81.0205C51.0548 81.0205 44.567 84.7542 44.567 89.36C44.567 93.9658 51.0548 97.6995 59.0579 97.6995Z" fill="white"/>
<path d="M24.2525 38.1066C28.258 31.2539 34.7652 27.564 38.798 29.8618C42.8309 32.1595 42.8582 39.5799 38.8527 46.4326C34.8472 53.2853 28.34 56.9752 24.3071 54.6774C20.2743 52.3797 20.247 44.9593 24.2525 38.1066Z" fill="white"/>
<path d="M79.2494 69.5047C83.2549 62.652 89.7622 58.9621 93.795 61.2599C97.8279 63.5576 97.8552 70.978 93.8497 77.8307C89.8442 84.6834 83.337 88.3733 79.3041 86.0756C75.2713 83.7778 75.2439 76.3574 79.2494 69.5047Z" fill="white"/>
<path d="M24.3071 61.2599C28.34 58.9621 34.8609 62.652 38.8527 69.5047C42.8582 76.3574 42.8309 83.7778 38.798 86.0756C34.7652 88.3733 28.2443 84.6834 24.2525 77.8307C20.247 70.978 20.2743 63.5576 24.3071 61.2599Z" fill="white"/>
<path d="M79.3041 29.8753C83.337 27.5775 89.8442 31.2674 93.8497 38.1201C97.8552 44.9728 97.8279 52.3932 93.795 54.691C89.7622 56.9887 83.2549 53.2988 79.2494 46.4461C75.2439 39.5934 75.2713 32.173 79.3041 29.8753Z" fill="white"/>
</svg>
