<svg width="122" height="116" viewBox="0 0 122 116" fill="none" xmlns="http://www.w3.org/2000/svg">
<path d="M109.809 66.7862C116.096 40.0129 99.2401 13.2701 72.1608 7.05457C45.0815 0.839004 18.0331 17.5043 11.7465 44.2776C5.45995 71.0509 22.3157 97.7937 49.395 104.009C76.4743 110.225 103.523 93.5595 109.809 66.7862Z" fill="#627EEA"/>
<path d="M62.3463 18.2198V45.8063L85.9282 56.2273L62.3463 18.2198Z" fill="black"/>
<path d="M62.3463 18.2198L38.7508 56.2273L62.3463 45.8063V18.2198Z" fill="white"/>
<path d="M62.3463 74.1092V92.8562L85.9418 60.566L62.3463 74.1092Z" fill="black"/>
<path d="M62.3463 92.8562V74.1092L38.7508 60.5795L62.3463 92.8697V92.8562Z" fill="white"/>
<path d="M62.3463 69.7705L85.9282 56.2273L62.3463 45.8199V69.7705Z" fill="black"/>
<path d="M38.7644 56.2273L62.36 69.7705V45.8199L38.7644 56.2273Z" fill="black"/>
</svg>
