<svg width="101" height="101" viewBox="0 0 101 101" fill="none" xmlns="http://www.w3.org/2000/svg">
<path d="M50.6602 100.349C78.4596 100.349 100.996 78.0674 100.996 50.5821C100.996 23.0967 78.4596 0.815521 50.6602 0.815521C22.8608 0.815521 0.32489 23.0967 0.32489 50.5821C0.32489 78.0674 22.8608 100.349 50.6602 100.349Z" fill="#3CC8C8"/>
<path d="M49.6896 14.9669C51.3984 14.0884 53.4901 16.1293 52.5741 17.8188C52.041 19.1975 50.0451 19.5624 49.0198 18.5082C47.9398 17.508 48.2952 15.5076 49.676 14.9669M31.2889 16.9268C32.3279 16.5078 33.6403 17.4404 33.5309 18.5622C33.6403 19.7787 32.1365 20.6707 31.0839 20.0895C29.6758 19.5489 29.8398 17.3052 31.2889 16.9268ZM68.9379 20.1301C67.3111 19.9409 67.065 17.4134 68.6235 16.8998C69.8402 16.3186 70.9475 17.4134 71.1252 18.5487C70.8654 19.5219 70.0452 20.4004 68.9379 20.1301ZM35.4722 24.658C37.2083 23.5767 39.6827 25.1851 39.423 27.1855C39.3273 29.1995 36.6342 30.3619 35.103 29.0102C33.6266 27.9425 33.8453 25.496 35.4722 24.6716M61.9659 25.8204C62.7451 23.8471 65.8756 23.793 66.7642 25.7123C67.6392 27.2126 66.5592 29.0643 65.0144 29.5644C62.9638 29.9429 61.0089 27.7397 61.9795 25.8204M47.4613 29.4563C47.4476 27.7668 49.0061 26.4962 50.6329 26.3746C51.7129 26.5908 52.8886 27.0504 53.3534 28.1182C54.2146 29.6049 53.449 31.6594 51.8906 32.3352C51.1797 32.7272 50.3321 32.5785 49.5529 32.538C48.3636 31.9568 47.3656 30.8349 47.4613 29.4428M20.12 31.9162C21.7058 30.9566 23.8384 32.7137 23.2506 34.4167C22.9225 35.89 20.9129 36.4847 19.7783 35.5521C18.5616 34.6735 18.7529 32.5515 20.1337 31.9162M78.8354 31.9162C80.1752 30.889 82.4035 32.0649 82.2394 33.7409C82.3351 35.2682 80.4076 36.4306 79.0815 35.6332C77.6051 34.9844 77.4547 32.7407 78.8354 31.9027M55.1579 34.9573C57.3725 34.1734 60.011 35.106 61.2823 37.0659C62.9502 39.4582 62.0616 43.1076 59.4778 44.4727C56.7984 46.0947 52.8749 44.716 51.8769 41.756C50.7559 39.1068 52.3964 35.7818 55.1579 34.9573ZM42.1297 35.2142C44.5905 34.0653 47.8988 35.0249 49.0881 37.5119C50.4825 39.9313 49.4025 43.3104 46.9008 44.5538C44.3991 45.9595 40.8584 44.8918 39.6554 42.2967C38.302 39.7827 39.505 36.363 42.1297 35.2142ZM29.088 39.6204C29.2793 38.0526 30.7695 37.0389 32.2732 36.9307C33.9 37.12 35.1987 38.377 35.3764 39.9989C35.2671 41.6073 34.0094 43.1887 32.2869 43.1752C30.3867 43.3374 28.7189 41.4722 29.088 39.6204ZM67.6119 37.2686C69.5668 36.1468 72.2735 37.7822 72.1778 39.9989C72.3145 42.3507 69.3207 43.9997 67.3794 42.621C65.3562 41.4722 65.5202 38.2418 67.6119 37.2686ZM36.8256 45.5405C39.1086 44.9188 41.706 45.9866 42.827 48.0545C44.0573 50.136 43.5515 53.042 41.6513 54.5693C39.2179 56.813 34.7066 55.9075 33.4079 52.8528C31.9178 50.0414 33.7223 46.2839 36.8256 45.5405ZM61.5284 45.5405C63.743 44.9188 66.3541 45.7568 67.5435 47.7572C69.1156 50.0414 68.3637 53.4475 66.0261 54.9208C63.5653 56.6238 59.7649 55.7317 58.4115 53.0555C56.771 50.2847 58.4115 46.3785 61.5421 45.5405M22.1706 48.1492C24.1392 47.4193 26.3265 49.5684 25.5199 51.4876C25.0278 53.2448 22.5261 53.8935 21.2273 52.596C19.7099 51.3795 20.2704 48.6628 22.1569 48.1356M75.5408 50.9335C75.4861 49.3251 76.6755 47.8923 78.357 47.7977C79.7104 48.014 81.0227 49.0818 80.9134 50.5415C81.0364 52.4608 78.6987 53.7584 77.0446 52.8663C76.2654 52.4743 75.8689 51.6904 75.5408 50.9335ZM12.4645 49.0818C13.6538 48.5682 15.1166 49.5819 14.8432 50.8929C14.7748 52.3662 12.5738 52.9339 11.7673 51.7039C11.0564 50.8524 11.4802 49.5278 12.4645 49.0953V49.0818ZM87.1745 49.0548C88.0085 48.4736 89.3482 48.8926 89.6763 49.8522C90.2367 50.9065 89.2114 52.3527 88.0084 52.1635C86.3269 52.3121 85.7801 49.7846 87.1745 49.0548ZM43.2508 56.1237C46.3677 55.3262 49.717 57.8943 49.7443 61.0706C49.9494 64.2739 46.6411 67.1259 43.4558 66.3825C40.9951 65.9905 39.0539 63.6387 39.1359 61.1787C39.1359 58.8269 40.9267 56.6238 43.2644 56.1372M55.609 56.1372C58.7669 55.2587 62.2256 57.8808 62.1709 61.1247C62.335 64.274 59.136 67.0177 56.0191 66.396C53.0799 66.0175 50.9063 62.8277 51.7265 60.0028C52.1367 58.1241 53.7361 56.5968 55.609 56.1372ZM31.7947 58.097C33.982 57.7321 36.0326 60.138 35.144 62.1924C34.5015 64.3821 31.2753 64.9768 29.8399 63.1927C28.172 61.4761 29.4161 58.3268 31.7811 58.097M67.9946 58.1917C69.9495 57.3807 72.3419 59.0567 72.1915 61.1517C72.2735 63.463 69.307 65.0444 67.4068 63.7063C65.2468 62.5033 65.6433 58.9351 67.9946 58.1917ZM78.1109 68.2342C77.3453 66.8285 78.7397 64.9633 80.3119 65.2201C81.1047 65.2201 81.6516 65.8148 82.1574 66.3419C82.2668 67.1799 82.4308 68.1666 81.7336 68.8154C80.7767 70.0048 78.6304 69.6669 78.1109 68.2477M20.0927 65.6256C21.5691 64.6524 23.7017 66.0986 23.3736 67.8152C23.1959 69.329 21.2683 70.1941 19.997 69.329C18.6299 68.5451 18.6846 66.3284 20.0927 65.6256ZM49.3068 68.7883C51.2481 67.9368 53.7088 69.6128 53.5311 71.7214C53.6678 74.0462 50.6192 75.6681 48.7327 74.2624C46.6274 73.0595 46.9828 69.5317 49.3205 68.7883M35.7866 71.9106C37.4407 71.0591 39.6554 72.5323 39.505 74.357C39.5597 75.8573 38.0696 77.1278 36.5795 76.9116C35.3354 76.8845 34.5289 75.7897 34.1324 74.749C34.1461 73.6136 34.6246 72.3431 35.7866 71.9106ZM63.1962 71.9376C64.8914 70.8969 67.2974 72.3837 67.1471 74.3435C67.1881 76.3845 64.4676 77.6955 62.8818 76.3439C61.3507 75.2896 61.5421 72.7756 63.1962 71.9376ZM67.9673 83.5886C67.2154 82.4667 68.104 81.1016 69.3207 80.8448C70.305 81.0475 71.3439 81.7774 71.1389 82.8992C70.9885 84.4266 68.7328 84.8996 67.9673 83.5886ZM30.1269 82.6019C30.4277 81.7098 31.1522 80.8178 32.2185 81.0475C33.777 81.1557 34.2281 83.4669 32.8747 84.1833C31.658 84.9943 30.2363 83.8859 30.1269 82.6019ZM48.3772 83.6291C48.678 82.3045 50.4005 81.6693 51.5488 82.3721C52.3007 82.6965 52.5194 83.521 52.7108 84.2374C52.6015 84.6023 52.5194 84.9807 52.4237 85.3457C51.9589 85.8998 51.3574 86.4405 50.5782 86.427C49.1291 86.5892 47.8304 84.9808 48.3772 83.6427" fill="white"/>
</svg>
